<svg xmlns="http://www.w3.org/2000/svg" version="1.1" xmlns:xlink="http://www.w3.org/1999/xlink" xmlns:svgjs="http://svgjs.dev/svgjs" width="1500" height="935" viewBox="0 0 1500 935"><g transform="matrix(1,0,0,1,-0.9090909090909918,0.3785425101214628)"><svg viewBox="0 0 396 247" data-background-color="#000000" preserveAspectRatio="xMidYMid meet" height="935" width="1500" xmlns="http://www.w3.org/2000/svg" xmlns:xlink="http://www.w3.org/1999/xlink"><g id="tight-bounds" transform="matrix(1,0,0,1,0.2400000000000091,-0.09999999999999432)"><svg viewBox="0 0 395.52 247.2" height="247.2" width="395.52"><rect width="395.52" height="247.2" fill="url(#2e9752ec-2f49-4c41-9402-0be46de2abb9)" mask="url(#4f2c8b46-7ad1-43f2-acbb-d33f7f075e6f)" data-fill-palette-color="tertiary"></rect><g><svg></svg></g><g><svg viewBox="0 0 395.52 247.2" height="247.2" width="395.52"><g transform="matrix(1,0,0,1,75.54432,82.61311570657826)"><svg viewBox="0 0 244.43135999999998 81.97376858684348" height="81.97376858684348" width="244.43135999999998"><g><svg viewBox="0 0 244.43135999999998 81.97376858684348" height="81.97376858684348" width="244.43135999999998"><g><svg viewBox="0 0 244.43135999999998 81.97376858684348" height="81.97376858684348" width="244.43135999999998"><g><svg viewBox="0 0 244.43135999999998 81.97376858684348" height="81.97376858684348" width="244.43135999999998"><g id="textblocktransform"><svg viewBox="0 0 244.43135999999998 81.97376858684348" height="81.97376858684348" width="244.43135999999998" id="textblock"><g><svg viewBox="0 0 244.43135999999998 44.21273377512221" height="44.21273377512221" width="244.43135999999998"><g transform="matrix(1,0,0,1,0,0)"><svg width="244.43135999999998" viewBox="1.75 -32.7 184.08 33.300000000000004" height="44.21273377512221" data-palette-color="url(#d6be4c5f-7475-4f3c-b60f-47f3ec8189e1)"><g class="wordmark-text-0" data-fill-palette-color="primary" id="text-0"></g></svg></g></svg></g><g transform="matrix(1,0,0,1,0,54.650299113817965)"><svg viewBox="0 0 244.43135999999998 27.323469473025522" height="27.323469473025522" width="244.43135999999998"><g transform="matrix(1,0,0,1,0,0)"><svg width="244.43135999999998" viewBox="0.71 -36.23 416.93 46.61" height="27.323469473025522" data-palette-color="url(#a785efd3-8703-4ac0-a3b2-538a3243f04f)"></svg></g></svg></g></svg></g></svg></g></svg></g></svg></g></svg></g><g><path d="M245.816 0c68.262 0 123.6 55.338 123.6 123.6 0 68.262-55.338 123.6-123.6 123.6-51.927 0-96.374-32.021-114.674-77.394l2.153 0c18.189 44.246 61.717 75.401 112.521 75.4 67.161 0 121.606-54.445 121.606-121.606 0-67.161-54.445-121.606-121.606-121.606-50.804 0-94.332 31.154-112.521 75.4l-2.153 0c18.3-45.373 62.747-77.394 114.674-77.394z" fill="url(#2e9752ec-2f49-4c41-9402-0be46de2abb9)" stroke="transparent" data-fill-palette-color="tertiary"></path></g></svg></g><defs></defs><mask id="944e8c96-7007-4175-b28a-afba0bb17da6"><g id="SvgjsG3067"><svg viewBox="0 0 395.52 247.2" height="247.2" width="395.52"><g><svg></svg></g><g><svg viewBox="0 0 395.52 247.2" height="247.2" width="395.52"><g transform="matrix(1,0,0,1,75.54432,82.61311570657826)"><svg viewBox="0 0 244.43135999999998 81.97376858684348" height="81.97376858684348" width="244.43135999999998"><g><svg viewBox="0 0 244.43135999999998 81.97376858684348" height="81.97376858684348" width="244.43135999999998"><g><svg viewBox="0 0 244.43135999999998 81.97376858684348" height="81.97376858684348" width="244.43135999999998"><g><svg viewBox="0 0 244.43135999999998 81.97376858684348" height="81.97376858684348" width="244.43135999999998"><g id="SvgjsG3066"><svg viewBox="0 0 244.43135999999998 81.97376858684348" height="81.97376858684348" width="244.43135999999998" id="SvgjsSvg3065"><g><svg viewBox="0 0 244.43135999999998 44.21273377512221" height="44.21273377512221" width="244.43135999999998"><g transform="matrix(1,0,0,1,0,0)"><svg width="244.43135999999998" viewBox="1.75 -32.7 184.08 33.300000000000004" height="44.21273377512221" data-palette-color="url(#d6be4c5f-7475-4f3c-b60f-47f3ec8189e1)"><g class="wordmark-text-0" data-fill-palette-color="primary" id="SvgjsG3064"><path d="M4.1-30.6L1.75-30.6 1.75-31.5 17.3-31.5Q21.25-31.5 22.85-31.95L22.85-31.95Q22.4-29.9 22.4-26.25L22.4-26.25 22.4-23.9 21.25-23.9 20.5-29Q20.4-30.1 19.1-30.1L19.1-30.1 8.9-30.1 8.9-16.45 18.75-16.45Q19.25-16.45 19.35-17.15L19.35-17.15 19.6-20.25 20.5-20.25 20.5-11.25 19.6-11.25 19.35-14.35Q19.25-15.05 18.75-15.05L18.75-15.05 8.9-15.05 8.9-1.6Q8.9-0.9 9.6-0.9L9.6-0.9 13.95-0.9 13.95 0 1.75 0 1.75-0.9 4.1-0.9Q4.8-0.9 4.8-1.6L4.8-1.6 4.8-30Q4.8-30.6 4.1-30.6L4.1-30.6ZM27.9-1.6L27.9-1.6 27.9-30.8Q27.9-31.5 27.2-31.5L27.2-31.5 24.85-31.5 24.85-32.4 27.3-32.4Q30.3-32.4 31.5-32.7L31.5-32.7 31.5-1.6Q31.5-0.9 32.2-0.9L32.2-0.9 34.55-0.9 34.55 0 24.85 0 24.85-0.9 27.2-0.9Q27.9-0.9 27.9-1.6ZM40.84-2.45Q38.05-5.5 38.05-10.8 38.05-16.1 40.84-19.15 43.65-22.2 48.15-22.2 52.65-22.2 55.47-19.15 58.3-16.1 58.3-10.8 58.3-5.5 55.47-2.45 52.65 0.6 48.15 0.6 43.65 0.6 40.84-2.45ZM43.65-18.32Q41.84-15.55 41.84-10.8 41.84-6.05 43.65-3.28 45.45-0.5 48.15-0.5 50.84-0.5 52.67-3.28 54.5-6.05 54.5-10.8 54.5-15.55 52.67-18.32 50.84-21.1 48.15-21.1 45.45-21.1 43.65-18.32ZM75.04-22.2Q76.99-22.2 78.22-20.55 79.44-18.9 79.44-16.4 79.44-13.9 77.39-13.9L77.39-13.9Q76.19-13.9 75.44-14.65L75.44-14.65Q76.09-16.1 76.09-17.6L76.09-17.6Q76.09-20.25 73.89-20.25L73.89-20.25Q72.04-20.25 70.62-17.18 69.19-14.1 69.19-8.25L69.19-8.25 69.19-1.6Q69.19-0.9 69.89-0.9L69.89-0.9 73.24-0.9 73.24 0 62.54 0 62.54-0.9 64.89-0.9Q65.59-0.9 65.59-1.6L65.59-1.6 65.59-20Q65.59-20.7 64.89-20.7L64.89-20.7 62.54-20.7 62.54-21.6 64.99-21.6Q67.99-21.6 69.19-21.9L69.19-21.9 69.19-15.5Q69.99-18.95 71.54-20.58 73.09-22.2 75.04-22.2ZM91.79-22.2L91.79-22.2Q95.24-22.2 97.24-19.9 99.24-17.6 99.24-13.15L99.24-13.15Q99.24-12.25 99.14-11.15L99.14-11.15 85.49-11.15 85.49-10.8Q85.49-6.05 87.22-3.33 88.94-0.6 91.67-0.6 94.39-0.6 96.14-2 97.89-3.4 98.54-6L98.54-6 99.49-5.8Q98.89-2.75 96.74-1.07 94.59 0.6 91.79 0.6L91.79 0.6Q87.44 0.6 84.57-2.45 81.69-5.5 81.69-10.78 81.69-16.05 84.59-19.13 87.49-22.2 91.79-22.2ZM95.79-14.85L95.79-14.85Q95.79-21 91.19-21L91.19-21Q88.89-21 87.27-18.5 85.64-16 85.54-12.15L85.54-12.15 95.59-12.15Q95.79-13.85 95.79-14.85ZM124.34-14.6L124.34-14.6 124.34-1.5Q124.34-0.9 125.04-0.9L125.04-0.9 127.39-0.9 127.39 0 118.39 0 118.39-0.9 120.04-0.9Q120.74-0.9 120.74-1.5L120.74-1.5 120.74-15.25Q120.74-17.8 119.61-19.03 118.49-20.25 116.64-20.25L116.64-20.25Q114.04-20.25 112.34-17.18 110.64-14.1 110.64-8.35L110.64-8.35 110.64-1.6Q110.64-0.9 111.34-0.9L111.34-0.9 112.99-0.9 112.99 0 103.99 0 103.99-0.9 106.34-0.9Q107.04-0.9 107.04-1.5L107.04-1.5 107.04-20Q107.04-20.7 106.34-20.7L106.34-20.7 103.99-20.7 103.99-21.6 106.44-21.6Q109.44-21.6 110.64-21.9L110.64-21.9 110.64-15.1Q112.34-22.2 118.14-22.2L118.14-22.2Q120.74-22.2 122.54-20.33 124.34-18.45 124.34-14.6ZM141.34-21L141.34-21Q138.49-21 136.71-18.28 134.94-15.55 134.94-10.8 134.94-6.05 136.66-3.33 138.39-0.6 141.11-0.6 143.84-0.6 145.59-2 147.34-3.4 147.99-6L147.99-6 148.94-5.8Q148.34-2.75 146.19-1.07 144.04 0.6 141.24 0.6L141.24 0.6Q136.89 0.6 134.01-2.45 131.14-5.5 131.14-10.8 131.14-16.1 134.04-19.15 136.94-22.2 141.34-22.2L141.34-22.2Q144.74-22.2 146.44-20.68 148.14-19.15 148.14-16.6L148.14-16.6Q148.14-13.3 146.29-13.3L146.29-13.3Q144.79-13.3 143.89-14.1L143.89-14.1Q144.59-15.6 144.59-17.23 144.59-18.85 143.76-19.93 142.94-21 141.34-21ZM155.48-1.6L155.48-1.6 155.48-20Q155.48-20.7 154.78-20.7L154.78-20.7 152.43-20.7 152.43-21.6 154.88-21.6Q157.88-21.6 159.08-21.9L159.08-21.9 159.08-1.5Q159.08-0.9 159.78-0.9L159.78-0.9 162.13-0.9 162.13 0 152.43 0 152.43-0.9 154.78-0.9Q155.48-0.9 155.48-1.6ZM155.61-27.13Q154.93-27.8 154.93-28.8 154.93-29.8 155.61-30.48 156.28-31.15 157.28-31.15 158.28-31.15 158.96-30.48 159.63-29.8 159.63-28.8 159.63-27.8 158.96-27.13 158.28-26.45 157.28-26.45 156.28-26.45 155.61-27.13ZM177.93-11.2L177.93-11.65 177.98-13.4 177.98-15.15Q177.98-21 174.18-21L174.18-21Q172.53-21 171.61-19.88 170.68-18.75 170.68-17.25 170.68-15.75 171.08-14.65L171.08-14.65Q170.23-13.9 168.73-13.9 167.23-13.9 167.23-16.35 167.23-18.8 169.16-20.5 171.08-22.2 174.63-22.2L174.63-22.2Q181.58-22.2 181.58-14L181.58-14 181.58-3.75Q181.58-1.05 183.08-1.05L183.08-1.05Q183.78-1.05 184.31-1.7 184.83-2.35 184.83-3.2 184.83-4.05 184.68-4.8L184.68-4.8 185.63-4.95Q185.83-4.2 185.83-3.3L185.83-3.3Q185.83-1.5 184.76-0.45 183.68 0.6 181.93 0.6 180.18 0.6 179.08-0.83 177.98-2.25 177.98-5.1L177.98-5.1 177.98-6Q177.13-2.6 175.28-1 173.43 0.6 171.01 0.6 168.58 0.6 167.11-0.93 165.63-2.45 165.63-4.98 165.63-7.5 167.98-9.47 170.33-11.45 174.73-11.45L174.73-11.45Q175.68-11.45 177.93-11.2L177.93-11.2ZM172.13-1.3L172.13-1.3Q174.23-1.3 175.91-3.68 177.58-6.05 177.88-10.35L177.88-10.35Q177.38-10.4 176.48-10.4L176.48-10.4Q172.48-10.4 170.76-8.72 169.03-7.05 169.03-4.85L169.03-4.85Q169.03-3.4 169.88-2.35 170.73-1.3 172.13-1.3Z" fill="white"></path></g></svg></g></svg></g><g transform="matrix(1,0,0,1,0,54.650299113817965)"><svg viewBox="0 0 244.43135999999998 27.323469473025522" height="27.323469473025522" width="244.43135999999998"><g transform="matrix(1,0,0,1,0,0)"><svg width="244.43135999999998" viewBox="0.71 -36.23 416.93 46.61" height="27.323469473025522" data-palette-color="url(#a785efd3-8703-4ac0-a3b2-538a3243f04f)"><path d="M13.96-23.22L8.81-23.22 8.81 0 4.42 0 4.42-23.22 0.71-23.22 0.71-26.42 4.42-26.42 4.42-29.39Q4.42-33.01 6.01-34.59 7.59-36.18 10.86-36.18L10.86-36.18Q12.7-36.18 13.96-35.89L13.96-35.89 13.96-32.54Q12.79-32.74 12.01-32.74L12.01-32.74Q10.33-32.74 9.57-31.88 8.81-31.03 8.81-28.78L8.81-28.78 8.81-26.42 13.96-26.42 13.96-23.22ZM34.28-4.52L34.2-4.52Q32.69-1.78 30.7-0.65 28.71 0.49 25.75 0.49L25.75 0.49Q21.41 0.49 19.4-1.67 17.38-3.83 17.38-8.81L17.38-8.81 17.38-26.42 21.8-26.42 21.8-9.67Q21.8-5.71 23.03-4.31 24.27-2.91 27.24-2.91L27.24-2.91Q30.42-2.91 32.25-5.08 34.08-7.25 34.08-11.11L34.08-11.11 34.08-26.42 38.47-26.42 38.47-5.64Q38.47-3.34 38.51-1.93 38.55-0.51 38.62 0L38.62 0 34.47 0Q34.45-0.12 34.39-1.15 34.32-2.17 34.28-4.52L34.28-4.52ZM45.55-36.23L49.95-36.23 49.95 0 45.55 0 45.55-36.23ZM56.9-36.23L61.3-36.23 61.3 0 56.9 0 56.9-36.23ZM88.08-7.3L88.08-7.3Q88.08-3.56 85.26-1.54 82.44 0.49 77.36 0.49L77.36 0.49Q72.43 0.49 69.76-1.14 67.08-2.76 66.28-6.2L66.28-6.2 70.16-6.96Q70.72-4.83 72.48-3.85 74.24-2.86 77.36-2.86L77.36-2.86Q80.71-2.86 82.26-3.88 83.81-4.91 83.81-6.96L83.81-6.96Q83.81-8.52 82.73-9.5 81.66-10.47 79.26-11.11L79.26-11.11Q76.43-11.87 74.76-12.35 73.09-12.84 72.18-13.2 71.28-13.55 70.74-13.87L70.74-13.87Q69.13-14.79 68.23-16.14 67.33-17.48 67.33-19.43L67.33-19.43Q67.33-23.05 69.9-24.94 72.48-26.83 77.41-26.83L77.41-26.83Q81.78-26.83 84.36-25.29 86.93-23.75 87.61-20.36L87.61-20.36 83.66-19.87Q83.29-21.63 81.69-22.57 80.09-23.51 77.41-23.51L77.41-23.51Q74.43-23.51 73.01-22.61 71.6-21.7 71.6-19.87L71.6-19.87Q71.6-18.53 72.4-17.66 73.21-16.8 75.48-16.24L75.48-16.24Q78.53-15.5 81.29-14.64 84.05-13.77 85.25-12.92L85.25-12.92Q86.64-11.91 87.36-10.56 88.08-9.2 88.08-7.3ZM103.65-3.44L103.65-0.2Q101.5 0.39 99.21 0.39L99.21 0.39Q96.57 0.39 95.25-1.11 93.94-2.61 93.94-5.59L93.94-5.59 93.94-23.22 90.88-23.22 90.88-26.42 94.11-26.42 95.4-32.32 98.33-32.32 98.33-26.42 103.21-26.42 103.21-23.22 98.33-23.22 98.33-6.54Q98.33-4.64 98.95-3.87 99.58-3.1 101.11-3.1L101.11-3.1Q101.94-3.1 103.65-3.44L103.65-3.44ZM114.37 0.49L114.37 0.49Q110.39 0.49 108.39-1.61 106.39-3.71 106.39-7.37L106.39-7.37Q106.39-11.47 109.08-13.67 111.78-15.87 117.79-16.02L117.79-16.02 123.72-16.11 123.72-17.55Q123.72-20.78 122.35-22.17 120.98-23.56 118.06-23.56L118.06-23.56Q115.1-23.56 113.76-22.56 112.42-21.56 112.15-19.36L112.15-19.36 107.56-19.78Q108.68-26.9 118.15-26.9L118.15-26.9Q123.13-26.9 125.65-24.62 128.16-22.34 128.16-18.02L128.16-18.02 128.16-6.64Q128.16-4.69 128.68-3.7 129.19-2.71 130.63-2.71L130.63-2.71Q131.31-2.71 132.07-2.88L132.07-2.88 132.07-0.15Q131.24 0.05 130.38 0.15 129.53 0.24 128.68 0.24L128.68 0.24Q126.23 0.24 125.12-1.04 124.01-2.32 123.87-5.05L123.87-5.05 123.72-5.05Q122.03-2.03 119.8-0.77 117.57 0.49 114.37 0.49ZM123.72-10.86L123.72-13.04 118.91-12.94Q115.83-12.92 114.22-12.3L114.22-12.3Q112.61-11.72 111.76-10.5 110.9-9.28 110.9-7.3L110.9-7.3Q110.9-5.15 112.06-3.98 113.22-2.81 115.37-2.81L115.37-2.81Q117.81-2.81 119.67-3.91L119.67-3.91Q121.55-5 122.63-6.92 123.72-8.84 123.72-10.86L123.72-10.86ZM145.81 0.49L145.81 0.49Q140.27 0.49 137.35-3.02 134.44-6.52 134.44-13.23L134.44-13.23Q134.44-19.9 137.36-23.4 140.29-26.9 145.76-26.9L145.76-26.9Q149.82-26.9 152.49-24.8 155.16-22.71 155.85-19.02L155.85-19.02 151.33-18.68Q150.99-20.87 149.6-22.17 148.2-23.46 145.64-23.46L145.64-23.46Q142.15-23.46 140.59-21.14 139.02-18.82 139.02-13.33L139.02-13.33Q139.02-8.06 140.69-5.52 142.35-2.98 145.69-2.98L145.69-2.98Q148.03-2.98 149.61-4.25 151.18-5.52 151.55-8.15L151.55-8.15 155.99-7.86Q155.65-5.32 154.3-3.44 152.94-1.56 150.78-0.54 148.62 0.49 145.81 0.49ZM168.54-12.06L165.32-9.4 165.32 0 160.92 0 160.92-36.23 165.32-36.23 165.32-13.6 176.91-26.42 182.06-26.42 171.35-15.06 182.63 0 177.48 0 168.54-12.06ZM221.51 0L217.32 0Q217.27-0.27 217.21-1.01 217.14-1.76 217.11-2.66 217.07-3.56 217.07-4.25L217.07-4.25 216.97-4.25Q215.75-1.71 213.74-0.61 211.72 0.49 208.75 0.49L208.75 0.49Q203.74 0.49 201.38-2.88 199.03-6.25 199.03-13.09L199.03-13.09Q199.03-20 201.46-23.45 203.89-26.9 208.75-26.9L208.75-26.9Q211.75-26.9 213.75-25.81 215.75-24.71 216.97-22.31L216.97-22.31 217.02-22.31 216.97-25.27 216.97-36.23 221.37-36.23 221.37-5.44Q221.37-3.37 221.4-2.01 221.44-0.66 221.51 0L221.51 0ZM203.64-13.23L203.64-13.23Q203.64-7.69 205.11-5.3 206.57-2.91 209.87-2.91L209.87-2.91Q213.6-2.91 215.29-5.49 216.97-8.08 216.97-13.53L216.97-13.53Q216.97-18.77 215.29-21.22 213.6-23.66 209.92-23.66L209.92-23.66Q206.6-23.66 205.12-21.2 203.64-18.75 203.64-13.23ZM250.57-12.28L231.72-12.28Q231.72-7.74 233.6-5.27 235.48-2.81 239.09-2.81L239.09-2.81Q241.95-2.81 243.67-3.96 245.39-5.1 246-6.86L246-6.86 249.86-5.76Q247.49 0.49 239.09 0.49L239.09 0.49Q233.23 0.49 230.17-3 227.1-6.49 227.1-13.38L227.1-13.38Q227.1-19.92 230.17-23.41 233.23-26.9 238.92-26.9L238.92-26.9Q244.75-26.9 247.66-23.39 250.57-19.87 250.57-12.87L250.57-12.87 250.57-12.28ZM231.77-15.65L246.02-15.65Q245.66-19.82 243.9-21.74 242.14-23.66 238.85-23.66L238.85-23.66Q235.65-23.66 233.78-21.52 231.91-19.38 231.77-15.65L231.77-15.65ZM273.2-26.42L277.86-26.42 267.99 0 262.79 0 253.2-26.42 257.89-26.42 263.7-9.23Q263.87-8.74 264.28-7.29 264.7-5.83 265.38-3.44L265.38-3.44Q265.7-4.39 266.01-5.43 266.31-6.47 266.62-7.45 266.92-8.42 267.19-9.18L267.19-9.18 273.2-26.42ZM303.86-12.28L285.01-12.28Q285.01-7.74 286.89-5.27 288.77-2.81 292.38-2.81L292.38-2.81Q295.24-2.81 296.96-3.96 298.68-5.1 299.29-6.86L299.29-6.86 303.15-5.76Q300.78 0.49 292.38 0.49L292.38 0.49Q286.52 0.49 283.46-3 280.4-6.49 280.4-13.38L280.4-13.38Q280.4-19.92 283.46-23.41 286.52-26.9 292.21-26.9L292.21-26.9Q298.05-26.9 300.95-23.39 303.86-19.87 303.86-12.87L303.86-12.87 303.86-12.28ZM285.06-15.65L299.32-15.65Q298.95-19.82 297.19-21.74 295.43-23.66 292.14-23.66L292.14-23.66Q288.94-23.66 287.07-21.52 285.2-19.38 285.06-15.65L285.06-15.65ZM309.69-36.23L314.08-36.23 314.08 0 309.69 0 309.69-36.23ZM343.38-13.23L343.38-13.23Q343.38-6.3 340.33-2.91 337.28 0.49 331.47 0.49L331.47 0.49Q325.68 0.49 322.73-3.04 319.77-6.57 319.77-13.23L319.77-13.23Q319.77-20.07 322.74-23.49 325.7-26.9 331.61-26.9L331.61-26.9Q337.67-26.9 340.52-23.57 343.38-20.24 343.38-13.23ZM338.77-13.23L338.77-13.23Q338.77-18.7 337.14-21.18 335.52-23.66 331.69-23.66L331.69-23.66Q327.83-23.66 326.11-21.13 324.39-18.6 324.39-13.23L324.39-13.23Q324.39-8.01 326.08-5.38 327.78-2.76 331.42-2.76L331.42-2.76Q335.37-2.76 337.07-5.3 338.77-7.84 338.77-13.23ZM371.43-13.33L371.43-13.33Q371.43-6.42 369-2.97 366.57 0.49 361.71 0.49L361.71 0.49Q355.61 0.49 353.51-4.1L353.51-4.1 353.39-4.1Q353.49-3.93 353.49 0.05L353.49 0.05 353.49 10.38 349.09 10.38 349.09-21.02Q349.09-23.05 349.05-24.4 349.02-25.76 348.94-26.42L348.94-26.42 353.19-26.42Q353.22-26.32 353.28-25.46 353.34-24.61 353.39-23.62 353.44-22.63 353.44-22.17L353.44-22.17 353.53-22.17Q354.71-24.61 356.63-25.74 358.56-26.88 361.71-26.88L361.71-26.88Q366.6-26.88 369.01-23.61 371.43-20.34 371.43-13.33ZM366.82-13.23L366.82-13.23Q366.82-18.75 365.33-21.12 363.84-23.49 360.59-23.49L360.59-23.49Q356.98-23.49 355.23-20.98 353.49-18.48 353.49-12.89L353.49-12.89Q353.49-7.69 355.15-5.22 356.81-2.76 360.54-2.76L360.54-2.76Q363.81-2.76 365.31-5.16 366.82-7.57 366.82-13.23ZM399.36-12.28L380.51-12.28Q380.51-7.74 382.39-5.27 384.27-2.81 387.88-2.81L387.88-2.81Q390.74-2.81 392.46-3.96 394.18-5.1 394.79-6.86L394.79-6.86 398.65-5.76Q396.28 0.49 387.88 0.49L387.88 0.49Q382.02 0.49 378.96-3 375.9-6.49 375.9-13.38L375.9-13.38Q375.9-19.92 378.96-23.41 382.02-26.9 387.71-26.9L387.71-26.9Q393.55-26.9 396.45-23.39 399.36-19.87 399.36-12.87L399.36-12.87 399.36-12.28ZM380.56-15.65L394.82-15.65Q394.45-19.82 392.69-21.74 390.93-23.66 387.64-23.66L387.64-23.66Q384.44-23.66 382.57-21.52 380.71-19.38 380.56-15.65L380.56-15.65ZM409.68-13.77L409.68-13.77 409.68 0 405.29 0 405.29-20.26Q405.29-21.66 405.25-23.19 405.22-24.73 405.14-26.42L405.14-26.42 409.29-26.42Q409.34-25.29 409.38-24.39 409.41-23.49 409.44-22.81 409.46-22.14 409.48-21.69 409.49-21.24 409.49-21.02L409.49-21.02 409.59-21.02Q410.32-23.41 411.2-24.73L411.2-24.73Q412.05-25.95 413.15-26.43 414.25-26.9 415.86-26.9L415.86-26.9Q416.76-26.9 417.64-26.66L417.64-26.66 417.64-22.63Q416.81-22.88 415.3-22.88L415.3-22.88Q412.56-22.88 411.12-20.52 409.68-18.16 409.68-13.77Z" opacity="1" transform="matrix(1,0,0,1,0,0)" fill="black" class="slogan-text-1" id="SvgjsPath3063"></path></svg></g></svg></g></svg></g></svg></g></svg></g></svg></g></svg></g><g><path d="M245.816 0c68.262 0 123.6 55.338 123.6 123.6 0 68.262-55.338 123.6-123.6 123.6-51.927 0-96.374-32.021-114.674-77.394l2.153 0c18.189 44.246 61.717 75.401 112.521 75.4 67.161 0 121.606-54.445 121.606-121.606 0-67.161-54.445-121.606-121.606-121.606-50.804 0-94.332 31.154-112.521 75.4l-2.153 0c18.3-45.373 62.747-77.394 114.674-77.394z" fill="black" stroke="transparent"></path></g></svg></g><defs><mask></mask></defs></svg><rect width="395.52" height="247.2" fill="black" stroke="none" visibility="hidden"></rect></g></mask><linearGradient x1="0" x2="1" y1="0.578" y2="0.595" id="d6be4c5f-7475-4f3c-b60f-47f3ec8189e1"><stop stop-color="#6ee2f5" offset="0"></stop><stop stop-color="#6454f0" offset="1"></stop></linearGradient><rect width="395.52" height="247.2" fill="url(#d6be4c5f-7475-4f3c-b60f-47f3ec8189e1)" mask="url(#944e8c96-7007-4175-b28a-afba0bb17da6)" data-fill-palette-color="primary"></rect><mask id="3ce6eeb5-2815-4b89-9a40-5fbcb6f3a0d6"><g id="SvgjsG3077"><svg viewBox="0 0 395.52 247.2" height="247.2" width="395.52"><g><svg></svg></g><g><svg viewBox="0 0 395.52 247.2" height="247.2" width="395.52"><g transform="matrix(1,0,0,1,75.54432,82.61311570657826)"><svg viewBox="0 0 244.43135999999998 81.97376858684348" height="81.97376858684348" width="244.43135999999998"><g><svg viewBox="0 0 244.43135999999998 81.97376858684348" height="81.97376858684348" width="244.43135999999998"><g><svg viewBox="0 0 244.43135999999998 81.97376858684348" height="81.97376858684348" width="244.43135999999998"><g><svg viewBox="0 0 244.43135999999998 81.97376858684348" height="81.97376858684348" width="244.43135999999998"><g id="SvgjsG3076"><svg viewBox="0 0 244.43135999999998 81.97376858684348" height="81.97376858684348" width="244.43135999999998" id="SvgjsSvg3075"><g><svg viewBox="0 0 244.43135999999998 44.21273377512221" height="44.21273377512221" width="244.43135999999998"><g transform="matrix(1,0,0,1,0,0)"><svg width="244.43135999999998" viewBox="1.75 -32.7 184.08 33.300000000000004" height="44.21273377512221" data-palette-color="url(#d6be4c5f-7475-4f3c-b60f-47f3ec8189e1)"><g class="wordmark-text-0" data-fill-palette-color="primary" id="SvgjsG3074"></g></svg></g></svg></g><g transform="matrix(1,0,0,1,0,54.650299113817965)"><svg viewBox="0 0 244.43135999999998 27.323469473025522" height="27.323469473025522" width="244.43135999999998"><g transform="matrix(1,0,0,1,0,0)"><svg width="244.43135999999998" viewBox="0.71 -36.23 416.93 46.61" height="27.323469473025522" data-palette-color="url(#a785efd3-8703-4ac0-a3b2-538a3243f04f)"><path d="M13.96-23.22L8.81-23.22 8.81 0 4.42 0 4.42-23.22 0.71-23.22 0.71-26.42 4.42-26.42 4.42-29.39Q4.42-33.01 6.01-34.59 7.59-36.18 10.86-36.18L10.86-36.18Q12.7-36.18 13.96-35.89L13.96-35.89 13.96-32.54Q12.79-32.74 12.01-32.74L12.01-32.74Q10.33-32.74 9.57-31.88 8.81-31.03 8.81-28.78L8.81-28.78 8.81-26.42 13.96-26.42 13.96-23.22ZM34.28-4.52L34.2-4.52Q32.69-1.78 30.7-0.65 28.71 0.49 25.75 0.49L25.75 0.49Q21.41 0.49 19.4-1.67 17.38-3.83 17.38-8.81L17.38-8.81 17.38-26.42 21.8-26.42 21.8-9.67Q21.8-5.71 23.03-4.31 24.27-2.91 27.24-2.91L27.24-2.91Q30.42-2.91 32.25-5.08 34.08-7.25 34.08-11.11L34.08-11.11 34.08-26.42 38.47-26.42 38.47-5.64Q38.47-3.34 38.51-1.93 38.55-0.51 38.62 0L38.62 0 34.47 0Q34.45-0.12 34.39-1.15 34.32-2.17 34.28-4.52L34.28-4.52ZM45.55-36.23L49.95-36.23 49.95 0 45.55 0 45.55-36.23ZM56.9-36.23L61.3-36.23 61.3 0 56.9 0 56.9-36.23ZM88.08-7.3L88.08-7.3Q88.08-3.56 85.26-1.54 82.44 0.49 77.36 0.49L77.36 0.49Q72.43 0.49 69.76-1.14 67.08-2.76 66.28-6.2L66.28-6.2 70.16-6.96Q70.72-4.83 72.48-3.85 74.24-2.86 77.36-2.86L77.36-2.86Q80.71-2.86 82.26-3.88 83.81-4.91 83.81-6.96L83.81-6.96Q83.81-8.52 82.73-9.5 81.66-10.47 79.26-11.11L79.26-11.11Q76.43-11.87 74.76-12.35 73.09-12.84 72.18-13.2 71.28-13.55 70.74-13.87L70.74-13.87Q69.13-14.79 68.23-16.14 67.33-17.48 67.33-19.43L67.33-19.43Q67.33-23.05 69.9-24.94 72.48-26.83 77.41-26.83L77.41-26.83Q81.78-26.83 84.36-25.29 86.93-23.75 87.61-20.36L87.61-20.36 83.66-19.87Q83.29-21.63 81.69-22.57 80.09-23.51 77.41-23.51L77.41-23.51Q74.43-23.51 73.01-22.61 71.6-21.7 71.6-19.87L71.6-19.87Q71.6-18.53 72.4-17.66 73.21-16.8 75.48-16.24L75.48-16.24Q78.53-15.5 81.29-14.64 84.05-13.77 85.25-12.92L85.25-12.92Q86.64-11.91 87.36-10.56 88.08-9.2 88.08-7.3ZM103.65-3.44L103.65-0.2Q101.5 0.39 99.21 0.39L99.21 0.39Q96.57 0.39 95.25-1.11 93.94-2.61 93.94-5.59L93.94-5.59 93.94-23.22 90.88-23.22 90.88-26.42 94.11-26.42 95.4-32.32 98.33-32.32 98.33-26.42 103.21-26.42 103.21-23.22 98.33-23.22 98.33-6.54Q98.33-4.64 98.95-3.87 99.58-3.1 101.11-3.1L101.11-3.1Q101.94-3.1 103.65-3.44L103.65-3.44ZM114.37 0.49L114.37 0.49Q110.39 0.49 108.39-1.61 106.39-3.71 106.39-7.37L106.39-7.37Q106.39-11.47 109.08-13.67 111.78-15.87 117.79-16.02L117.79-16.02 123.72-16.11 123.72-17.55Q123.72-20.78 122.35-22.17 120.98-23.56 118.06-23.56L118.06-23.56Q115.1-23.56 113.76-22.56 112.42-21.56 112.15-19.36L112.15-19.36 107.56-19.78Q108.68-26.9 118.15-26.9L118.15-26.9Q123.13-26.9 125.65-24.62 128.16-22.34 128.16-18.02L128.16-18.02 128.16-6.64Q128.16-4.69 128.68-3.7 129.19-2.71 130.63-2.71L130.63-2.71Q131.31-2.71 132.07-2.88L132.07-2.88 132.07-0.15Q131.24 0.05 130.38 0.15 129.53 0.24 128.68 0.24L128.68 0.24Q126.23 0.24 125.12-1.04 124.01-2.32 123.87-5.05L123.87-5.05 123.72-5.05Q122.03-2.03 119.8-0.77 117.57 0.49 114.37 0.49ZM123.72-10.86L123.72-13.04 118.91-12.94Q115.83-12.92 114.22-12.3L114.22-12.3Q112.61-11.72 111.76-10.5 110.9-9.28 110.9-7.3L110.9-7.3Q110.9-5.15 112.06-3.98 113.22-2.81 115.37-2.81L115.37-2.81Q117.81-2.81 119.67-3.91L119.67-3.91Q121.55-5 122.63-6.92 123.72-8.84 123.72-10.86L123.72-10.86ZM145.81 0.49L145.81 0.49Q140.27 0.49 137.35-3.02 134.44-6.52 134.44-13.23L134.44-13.23Q134.44-19.9 137.36-23.4 140.29-26.9 145.76-26.9L145.76-26.9Q149.82-26.9 152.49-24.8 155.16-22.71 155.85-19.02L155.85-19.02 151.33-18.68Q150.99-20.87 149.6-22.17 148.2-23.46 145.64-23.46L145.64-23.46Q142.15-23.46 140.59-21.14 139.02-18.82 139.02-13.33L139.02-13.33Q139.02-8.06 140.69-5.52 142.35-2.98 145.69-2.98L145.69-2.98Q148.03-2.98 149.61-4.25 151.18-5.52 151.55-8.15L151.55-8.15 155.99-7.86Q155.65-5.32 154.3-3.44 152.94-1.56 150.78-0.54 148.62 0.49 145.81 0.49ZM168.54-12.06L165.32-9.4 165.32 0 160.92 0 160.92-36.23 165.32-36.23 165.32-13.6 176.91-26.42 182.06-26.42 171.35-15.06 182.63 0 177.48 0 168.54-12.06ZM221.51 0L217.32 0Q217.27-0.27 217.21-1.01 217.14-1.76 217.11-2.66 217.07-3.56 217.07-4.25L217.07-4.25 216.97-4.25Q215.75-1.71 213.74-0.61 211.72 0.49 208.75 0.49L208.75 0.49Q203.74 0.49 201.38-2.88 199.03-6.25 199.03-13.09L199.03-13.09Q199.03-20 201.46-23.45 203.89-26.9 208.75-26.9L208.75-26.9Q211.75-26.9 213.75-25.81 215.75-24.71 216.97-22.31L216.97-22.31 217.02-22.31 216.97-25.27 216.97-36.23 221.37-36.23 221.37-5.44Q221.37-3.37 221.4-2.01 221.44-0.66 221.51 0L221.51 0ZM203.64-13.23L203.64-13.23Q203.64-7.69 205.11-5.3 206.57-2.91 209.87-2.91L209.87-2.91Q213.6-2.91 215.29-5.49 216.97-8.08 216.97-13.53L216.97-13.53Q216.97-18.77 215.29-21.22 213.6-23.66 209.92-23.66L209.92-23.66Q206.6-23.66 205.12-21.2 203.64-18.75 203.64-13.23ZM250.57-12.28L231.72-12.28Q231.72-7.74 233.6-5.27 235.48-2.81 239.09-2.81L239.09-2.81Q241.95-2.81 243.67-3.96 245.39-5.1 246-6.86L246-6.86 249.86-5.76Q247.49 0.49 239.09 0.49L239.09 0.49Q233.23 0.49 230.17-3 227.1-6.49 227.1-13.38L227.1-13.38Q227.1-19.92 230.17-23.41 233.23-26.9 238.92-26.9L238.92-26.9Q244.75-26.9 247.66-23.39 250.57-19.87 250.57-12.87L250.57-12.87 250.57-12.28ZM231.77-15.65L246.02-15.65Q245.66-19.82 243.9-21.74 242.14-23.66 238.85-23.66L238.85-23.66Q235.65-23.66 233.78-21.52 231.91-19.38 231.77-15.65L231.77-15.65ZM273.2-26.42L277.86-26.42 267.99 0 262.79 0 253.2-26.42 257.89-26.42 263.7-9.23Q263.87-8.74 264.28-7.29 264.7-5.83 265.38-3.44L265.38-3.44Q265.7-4.39 266.01-5.43 266.31-6.47 266.62-7.45 266.92-8.42 267.19-9.18L267.19-9.18 273.2-26.42ZM303.86-12.28L285.01-12.28Q285.01-7.74 286.89-5.27 288.77-2.81 292.38-2.81L292.38-2.81Q295.24-2.81 296.96-3.96 298.68-5.1 299.29-6.86L299.29-6.86 303.15-5.76Q300.78 0.49 292.38 0.49L292.38 0.49Q286.52 0.49 283.46-3 280.4-6.49 280.4-13.38L280.4-13.38Q280.4-19.92 283.46-23.41 286.52-26.9 292.21-26.9L292.21-26.9Q298.05-26.9 300.95-23.39 303.86-19.87 303.86-12.87L303.86-12.87 303.86-12.28ZM285.06-15.65L299.32-15.65Q298.95-19.82 297.19-21.74 295.43-23.66 292.14-23.66L292.14-23.66Q288.94-23.66 287.07-21.52 285.2-19.38 285.06-15.65L285.06-15.65ZM309.69-36.23L314.08-36.23 314.08 0 309.69 0 309.69-36.23ZM343.38-13.23L343.38-13.23Q343.38-6.3 340.33-2.91 337.28 0.49 331.47 0.49L331.47 0.49Q325.68 0.49 322.73-3.04 319.77-6.57 319.77-13.23L319.77-13.23Q319.77-20.07 322.74-23.49 325.7-26.9 331.61-26.9L331.61-26.9Q337.67-26.9 340.52-23.57 343.38-20.24 343.38-13.23ZM338.77-13.23L338.77-13.23Q338.77-18.7 337.14-21.18 335.52-23.66 331.69-23.66L331.69-23.66Q327.83-23.66 326.11-21.13 324.39-18.6 324.39-13.23L324.39-13.23Q324.39-8.01 326.08-5.38 327.78-2.76 331.42-2.76L331.42-2.76Q335.37-2.76 337.07-5.3 338.77-7.84 338.77-13.23ZM371.43-13.33L371.43-13.33Q371.43-6.42 369-2.97 366.57 0.49 361.71 0.49L361.71 0.49Q355.61 0.49 353.51-4.1L353.51-4.1 353.39-4.1Q353.49-3.93 353.49 0.05L353.49 0.05 353.49 10.38 349.09 10.38 349.09-21.02Q349.09-23.05 349.05-24.4 349.02-25.76 348.94-26.42L348.94-26.42 353.19-26.42Q353.22-26.32 353.28-25.46 353.34-24.61 353.39-23.62 353.44-22.63 353.44-22.17L353.44-22.17 353.53-22.17Q354.71-24.61 356.63-25.74 358.56-26.88 361.71-26.88L361.71-26.88Q366.6-26.88 369.01-23.61 371.43-20.34 371.43-13.33ZM366.82-13.23L366.82-13.23Q366.82-18.75 365.33-21.12 363.84-23.49 360.59-23.49L360.59-23.49Q356.98-23.49 355.23-20.98 353.49-18.48 353.49-12.89L353.49-12.89Q353.49-7.69 355.15-5.22 356.81-2.76 360.54-2.76L360.54-2.76Q363.81-2.76 365.31-5.16 366.82-7.57 366.82-13.23ZM399.36-12.28L380.51-12.28Q380.51-7.74 382.39-5.27 384.27-2.81 387.88-2.81L387.88-2.81Q390.74-2.81 392.46-3.96 394.18-5.1 394.79-6.86L394.79-6.86 398.65-5.76Q396.28 0.49 387.88 0.49L387.88 0.49Q382.02 0.49 378.96-3 375.9-6.49 375.9-13.38L375.9-13.38Q375.9-19.92 378.96-23.41 382.02-26.9 387.71-26.9L387.71-26.9Q393.55-26.9 396.45-23.39 399.36-19.87 399.36-12.87L399.36-12.87 399.36-12.28ZM380.56-15.65L394.82-15.65Q394.45-19.82 392.69-21.74 390.93-23.66 387.64-23.66L387.64-23.66Q384.44-23.66 382.57-21.52 380.71-19.38 380.56-15.65L380.56-15.65ZM409.68-13.77L409.68-13.77 409.68 0 405.29 0 405.29-20.26Q405.29-21.66 405.25-23.19 405.22-24.73 405.14-26.42L405.14-26.42 409.29-26.42Q409.34-25.29 409.38-24.39 409.41-23.49 409.44-22.81 409.46-22.14 409.48-21.69 409.49-21.24 409.49-21.02L409.49-21.02 409.59-21.02Q410.32-23.41 411.2-24.73L411.2-24.73Q412.05-25.95 413.15-26.43 414.25-26.9 415.86-26.9L415.86-26.9Q416.76-26.9 417.64-26.66L417.64-26.66 417.64-22.63Q416.81-22.88 415.3-22.88L415.3-22.88Q412.56-22.88 411.12-20.52 409.68-18.16 409.68-13.77Z" opacity="1" transform="matrix(1,0,0,1,0,0)" fill="white" class="slogan-text-1" id="SvgjsPath3073"></path></svg></g></svg></g></svg></g></svg></g></svg></g></svg></g></svg></g><g><path d="M245.816 0c68.262 0 123.6 55.338 123.6 123.6 0 68.262-55.338 123.6-123.6 123.6-51.927 0-96.374-32.021-114.674-77.394l2.153 0c18.189 44.246 61.717 75.401 112.521 75.4 67.161 0 121.606-54.445 121.606-121.606 0-67.161-54.445-121.606-121.606-121.606-50.804 0-94.332 31.154-112.521 75.4l-2.153 0c18.3-45.373 62.747-77.394 114.674-77.394z" fill="black" stroke="transparent"></path></g></svg></g><defs><mask></mask></defs><mask><g id="SvgjsG3072"><svg viewBox="0 0 395.52 247.2" height="247.2" width="395.52"><g><svg></svg></g><g><svg viewBox="0 0 395.52 247.2" height="247.2" width="395.52"><g transform="matrix(1,0,0,1,75.54432,82.61311570657826)"><svg viewBox="0 0 244.43135999999998 81.97376858684348" height="81.97376858684348" width="244.43135999999998"><g><svg viewBox="0 0 244.43135999999998 81.97376858684348" height="81.97376858684348" width="244.43135999999998"><g><svg viewBox="0 0 244.43135999999998 81.97376858684348" height="81.97376858684348" width="244.43135999999998"><g><svg viewBox="0 0 244.43135999999998 81.97376858684348" height="81.97376858684348" width="244.43135999999998"><g id="SvgjsG3071"><svg viewBox="0 0 244.43135999999998 81.97376858684348" height="81.97376858684348" width="244.43135999999998" id="SvgjsSvg3070"><g><svg viewBox="0 0 244.43135999999998 44.21273377512221" height="44.21273377512221" width="244.43135999999998"><g transform="matrix(1,0,0,1,0,0)"><svg width="244.43135999999998" viewBox="1.75 -32.7 184.08 33.300000000000004" height="44.21273377512221" data-palette-color="url(#d6be4c5f-7475-4f3c-b60f-47f3ec8189e1)"><g class="wordmark-text-0" data-fill-palette-color="primary" id="SvgjsG3069"><path d="M4.1-30.6L1.75-30.6 1.75-31.5 17.3-31.5Q21.25-31.5 22.85-31.95L22.85-31.95Q22.4-29.9 22.4-26.25L22.4-26.25 22.4-23.9 21.25-23.9 20.5-29Q20.4-30.1 19.1-30.1L19.1-30.1 8.9-30.1 8.9-16.45 18.75-16.45Q19.25-16.45 19.35-17.15L19.35-17.15 19.6-20.25 20.5-20.25 20.5-11.25 19.6-11.25 19.35-14.35Q19.25-15.05 18.75-15.05L18.75-15.05 8.9-15.05 8.9-1.6Q8.9-0.9 9.6-0.9L9.6-0.9 13.95-0.9 13.95 0 1.75 0 1.75-0.9 4.1-0.9Q4.8-0.9 4.8-1.6L4.8-1.6 4.8-30Q4.8-30.6 4.1-30.6L4.1-30.6ZM27.9-1.6L27.9-1.6 27.9-30.8Q27.9-31.5 27.2-31.5L27.2-31.5 24.85-31.5 24.85-32.4 27.3-32.4Q30.3-32.4 31.5-32.7L31.5-32.7 31.5-1.6Q31.5-0.9 32.2-0.9L32.2-0.9 34.55-0.9 34.55 0 24.85 0 24.85-0.9 27.2-0.9Q27.9-0.9 27.9-1.6ZM40.84-2.45Q38.05-5.5 38.05-10.8 38.05-16.1 40.84-19.15 43.65-22.2 48.15-22.2 52.65-22.2 55.47-19.15 58.3-16.1 58.3-10.8 58.3-5.5 55.47-2.45 52.65 0.6 48.15 0.6 43.65 0.6 40.84-2.45ZM43.65-18.32Q41.84-15.55 41.84-10.8 41.84-6.05 43.65-3.28 45.45-0.5 48.15-0.5 50.84-0.5 52.67-3.28 54.5-6.05 54.5-10.8 54.5-15.55 52.67-18.32 50.84-21.1 48.15-21.1 45.45-21.1 43.65-18.32ZM75.04-22.2Q76.99-22.2 78.22-20.55 79.44-18.9 79.44-16.4 79.44-13.9 77.39-13.9L77.39-13.9Q76.19-13.9 75.44-14.65L75.44-14.65Q76.09-16.1 76.09-17.6L76.09-17.6Q76.09-20.25 73.89-20.25L73.89-20.25Q72.04-20.25 70.62-17.18 69.19-14.1 69.19-8.25L69.19-8.25 69.19-1.6Q69.19-0.9 69.89-0.9L69.89-0.9 73.24-0.9 73.24 0 62.54 0 62.54-0.9 64.89-0.9Q65.59-0.9 65.59-1.6L65.59-1.6 65.59-20Q65.59-20.7 64.89-20.7L64.89-20.7 62.54-20.7 62.54-21.6 64.99-21.6Q67.99-21.6 69.19-21.9L69.19-21.9 69.19-15.5Q69.99-18.95 71.54-20.58 73.09-22.2 75.04-22.2ZM91.79-22.2L91.79-22.2Q95.24-22.2 97.24-19.9 99.24-17.6 99.24-13.15L99.24-13.15Q99.24-12.25 99.14-11.15L99.14-11.15 85.49-11.15 85.49-10.8Q85.49-6.05 87.22-3.33 88.94-0.6 91.67-0.6 94.39-0.6 96.14-2 97.89-3.4 98.54-6L98.54-6 99.49-5.8Q98.89-2.75 96.74-1.07 94.59 0.6 91.79 0.6L91.79 0.6Q87.44 0.6 84.57-2.45 81.69-5.5 81.69-10.78 81.69-16.05 84.59-19.13 87.49-22.2 91.79-22.2ZM95.79-14.85L95.79-14.85Q95.79-21 91.19-21L91.19-21Q88.89-21 87.27-18.5 85.64-16 85.54-12.15L85.54-12.15 95.59-12.15Q95.79-13.85 95.79-14.85ZM124.34-14.6L124.34-14.6 124.34-1.5Q124.34-0.9 125.04-0.9L125.04-0.9 127.39-0.9 127.39 0 118.39 0 118.39-0.9 120.04-0.9Q120.74-0.9 120.74-1.5L120.74-1.5 120.74-15.25Q120.74-17.8 119.61-19.03 118.49-20.25 116.64-20.25L116.64-20.25Q114.04-20.25 112.34-17.18 110.64-14.1 110.64-8.35L110.64-8.35 110.64-1.6Q110.64-0.9 111.34-0.9L111.34-0.9 112.99-0.9 112.99 0 103.99 0 103.99-0.9 106.34-0.9Q107.04-0.9 107.04-1.5L107.04-1.5 107.04-20Q107.04-20.7 106.34-20.7L106.34-20.7 103.99-20.7 103.99-21.6 106.44-21.6Q109.44-21.6 110.64-21.9L110.64-21.9 110.64-15.1Q112.34-22.2 118.14-22.2L118.14-22.2Q120.74-22.2 122.54-20.33 124.34-18.45 124.34-14.6ZM141.34-21L141.34-21Q138.49-21 136.71-18.28 134.94-15.55 134.94-10.8 134.94-6.05 136.66-3.33 138.39-0.6 141.11-0.6 143.84-0.6 145.59-2 147.34-3.4 147.99-6L147.99-6 148.94-5.8Q148.34-2.75 146.19-1.07 144.04 0.6 141.24 0.6L141.24 0.6Q136.89 0.6 134.01-2.45 131.14-5.5 131.14-10.8 131.14-16.1 134.04-19.15 136.94-22.2 141.34-22.2L141.34-22.2Q144.74-22.2 146.44-20.68 148.14-19.15 148.14-16.6L148.14-16.6Q148.14-13.3 146.29-13.3L146.29-13.3Q144.79-13.3 143.89-14.1L143.89-14.1Q144.59-15.6 144.59-17.23 144.59-18.85 143.76-19.93 142.94-21 141.34-21ZM155.48-1.6L155.48-1.6 155.48-20Q155.48-20.7 154.78-20.7L154.78-20.7 152.43-20.7 152.43-21.6 154.88-21.6Q157.88-21.6 159.08-21.9L159.08-21.9 159.08-1.5Q159.08-0.9 159.78-0.9L159.78-0.9 162.13-0.9 162.13 0 152.43 0 152.43-0.9 154.78-0.9Q155.48-0.9 155.48-1.6ZM155.61-27.13Q154.93-27.8 154.93-28.8 154.93-29.8 155.61-30.48 156.28-31.15 157.28-31.15 158.28-31.15 158.96-30.48 159.63-29.8 159.63-28.8 159.63-27.8 158.96-27.13 158.28-26.45 157.28-26.45 156.28-26.45 155.61-27.13ZM177.93-11.2L177.93-11.65 177.98-13.4 177.98-15.15Q177.98-21 174.18-21L174.18-21Q172.53-21 171.61-19.88 170.68-18.75 170.68-17.25 170.68-15.75 171.08-14.65L171.08-14.65Q170.23-13.9 168.73-13.9 167.23-13.9 167.23-16.35 167.23-18.8 169.16-20.5 171.08-22.2 174.63-22.2L174.63-22.2Q181.58-22.2 181.58-14L181.58-14 181.58-3.75Q181.58-1.05 183.08-1.05L183.08-1.05Q183.78-1.05 184.31-1.7 184.83-2.35 184.83-3.2 184.83-4.05 184.68-4.8L184.68-4.8 185.63-4.95Q185.83-4.2 185.83-3.3L185.83-3.3Q185.83-1.5 184.76-0.45 183.68 0.6 181.93 0.6 180.18 0.6 179.08-0.83 177.98-2.25 177.98-5.1L177.98-5.1 177.98-6Q177.13-2.6 175.28-1 173.43 0.6 171.01 0.6 168.58 0.6 167.11-0.93 165.63-2.45 165.63-4.98 165.63-7.5 167.98-9.47 170.33-11.45 174.73-11.45L174.73-11.45Q175.68-11.45 177.93-11.2L177.93-11.2ZM172.13-1.3L172.13-1.3Q174.23-1.3 175.91-3.68 177.58-6.05 177.88-10.35L177.88-10.35Q177.38-10.4 176.48-10.4L176.48-10.4Q172.48-10.4 170.76-8.72 169.03-7.05 169.03-4.85L169.03-4.85Q169.03-3.4 169.88-2.35 170.73-1.3 172.13-1.3Z" fill="black"></path></g></svg></g></svg></g><g transform="matrix(1,0,0,1,0,54.650299113817965)"><svg viewBox="0 0 244.43135999999998 27.323469473025522" height="27.323469473025522" width="244.43135999999998"><g transform="matrix(1,0,0,1,0,0)"><svg width="244.43135999999998" viewBox="0.71 -36.23 416.93 46.61" height="27.323469473025522" data-palette-color="url(#a785efd3-8703-4ac0-a3b2-538a3243f04f)"><path d="M13.96-23.22L8.81-23.22 8.81 0 4.42 0 4.42-23.22 0.71-23.22 0.71-26.42 4.42-26.42 4.42-29.39Q4.42-33.01 6.01-34.59 7.59-36.18 10.86-36.18L10.86-36.18Q12.7-36.18 13.96-35.89L13.96-35.89 13.96-32.54Q12.79-32.74 12.01-32.74L12.01-32.74Q10.33-32.74 9.57-31.88 8.81-31.03 8.81-28.78L8.81-28.78 8.81-26.42 13.96-26.42 13.96-23.22ZM34.28-4.52L34.2-4.52Q32.69-1.78 30.7-0.65 28.71 0.49 25.75 0.49L25.75 0.49Q21.41 0.49 19.4-1.67 17.38-3.83 17.38-8.81L17.38-8.81 17.38-26.42 21.8-26.42 21.8-9.67Q21.8-5.71 23.03-4.31 24.27-2.91 27.24-2.91L27.24-2.91Q30.42-2.91 32.25-5.08 34.08-7.25 34.08-11.11L34.08-11.11 34.08-26.42 38.47-26.42 38.47-5.64Q38.47-3.34 38.51-1.93 38.55-0.51 38.62 0L38.62 0 34.47 0Q34.45-0.12 34.39-1.15 34.32-2.17 34.28-4.52L34.28-4.52ZM45.55-36.23L49.95-36.23 49.95 0 45.55 0 45.55-36.23ZM56.9-36.23L61.3-36.23 61.3 0 56.9 0 56.9-36.23ZM88.08-7.3L88.08-7.3Q88.08-3.56 85.26-1.54 82.44 0.49 77.36 0.49L77.36 0.49Q72.43 0.49 69.76-1.14 67.08-2.76 66.28-6.2L66.28-6.2 70.16-6.96Q70.72-4.83 72.48-3.85 74.24-2.86 77.36-2.86L77.36-2.86Q80.71-2.86 82.26-3.88 83.81-4.91 83.81-6.96L83.81-6.96Q83.81-8.52 82.73-9.5 81.66-10.47 79.26-11.11L79.26-11.11Q76.43-11.87 74.76-12.35 73.09-12.84 72.18-13.2 71.28-13.55 70.74-13.87L70.74-13.87Q69.13-14.79 68.23-16.14 67.33-17.48 67.33-19.43L67.33-19.43Q67.33-23.05 69.9-24.94 72.48-26.83 77.41-26.83L77.41-26.83Q81.78-26.83 84.36-25.29 86.93-23.75 87.61-20.36L87.61-20.36 83.66-19.87Q83.29-21.63 81.69-22.57 80.09-23.51 77.41-23.51L77.41-23.51Q74.43-23.51 73.01-22.61 71.6-21.7 71.6-19.87L71.6-19.87Q71.6-18.53 72.4-17.66 73.21-16.8 75.48-16.24L75.48-16.24Q78.53-15.5 81.29-14.64 84.05-13.77 85.25-12.92L85.25-12.92Q86.64-11.91 87.36-10.56 88.08-9.2 88.08-7.3ZM103.65-3.44L103.65-0.2Q101.5 0.39 99.21 0.39L99.21 0.39Q96.57 0.39 95.25-1.11 93.94-2.61 93.94-5.59L93.94-5.59 93.94-23.22 90.88-23.22 90.88-26.42 94.11-26.42 95.4-32.32 98.33-32.32 98.33-26.42 103.21-26.42 103.21-23.22 98.33-23.22 98.33-6.54Q98.33-4.64 98.95-3.87 99.58-3.1 101.11-3.1L101.11-3.1Q101.94-3.1 103.65-3.44L103.65-3.44ZM114.37 0.49L114.37 0.49Q110.39 0.49 108.39-1.61 106.39-3.71 106.39-7.37L106.39-7.37Q106.39-11.47 109.08-13.67 111.78-15.87 117.79-16.02L117.79-16.02 123.72-16.11 123.72-17.55Q123.72-20.78 122.35-22.17 120.98-23.56 118.06-23.56L118.06-23.56Q115.1-23.56 113.76-22.56 112.42-21.56 112.15-19.36L112.15-19.36 107.56-19.78Q108.68-26.9 118.15-26.9L118.15-26.9Q123.13-26.9 125.65-24.62 128.16-22.34 128.16-18.02L128.16-18.02 128.16-6.64Q128.16-4.69 128.68-3.7 129.19-2.71 130.63-2.71L130.63-2.71Q131.31-2.71 132.07-2.88L132.07-2.88 132.07-0.15Q131.24 0.05 130.38 0.15 129.53 0.24 128.68 0.24L128.68 0.24Q126.23 0.24 125.12-1.04 124.01-2.32 123.87-5.05L123.87-5.05 123.72-5.05Q122.03-2.03 119.8-0.77 117.57 0.49 114.37 0.49ZM123.72-10.86L123.72-13.04 118.91-12.94Q115.83-12.92 114.22-12.3L114.22-12.3Q112.61-11.72 111.76-10.5 110.9-9.28 110.9-7.3L110.9-7.3Q110.9-5.15 112.06-3.98 113.22-2.81 115.37-2.81L115.37-2.81Q117.81-2.81 119.67-3.91L119.67-3.91Q121.55-5 122.63-6.92 123.72-8.84 123.72-10.86L123.72-10.86ZM145.81 0.49L145.81 0.49Q140.27 0.49 137.35-3.02 134.44-6.52 134.44-13.23L134.44-13.23Q134.44-19.9 137.36-23.4 140.29-26.9 145.76-26.9L145.76-26.9Q149.82-26.9 152.49-24.8 155.16-22.71 155.85-19.02L155.85-19.02 151.33-18.68Q150.99-20.87 149.6-22.17 148.2-23.46 145.64-23.46L145.64-23.46Q142.15-23.46 140.59-21.14 139.02-18.82 139.02-13.33L139.02-13.33Q139.02-8.06 140.69-5.52 142.35-2.98 145.69-2.98L145.69-2.98Q148.03-2.98 149.61-4.25 151.18-5.52 151.55-8.15L151.55-8.15 155.99-7.86Q155.65-5.32 154.3-3.44 152.94-1.56 150.78-0.54 148.62 0.49 145.81 0.49ZM168.54-12.06L165.32-9.4 165.32 0 160.92 0 160.92-36.23 165.32-36.23 165.32-13.6 176.91-26.42 182.06-26.42 171.35-15.06 182.63 0 177.48 0 168.54-12.06ZM221.51 0L217.32 0Q217.27-0.27 217.21-1.01 217.14-1.76 217.11-2.66 217.07-3.56 217.07-4.25L217.07-4.25 216.97-4.25Q215.75-1.71 213.74-0.61 211.72 0.49 208.75 0.49L208.75 0.49Q203.74 0.49 201.38-2.88 199.03-6.25 199.03-13.09L199.03-13.09Q199.03-20 201.46-23.45 203.89-26.9 208.75-26.9L208.75-26.9Q211.75-26.9 213.75-25.81 215.75-24.71 216.97-22.31L216.97-22.31 217.02-22.31 216.97-25.27 216.97-36.23 221.37-36.23 221.37-5.44Q221.37-3.37 221.4-2.01 221.44-0.66 221.51 0L221.51 0ZM203.64-13.23L203.64-13.23Q203.64-7.69 205.11-5.3 206.57-2.91 209.87-2.91L209.87-2.91Q213.6-2.91 215.29-5.49 216.97-8.08 216.97-13.53L216.97-13.53Q216.97-18.77 215.29-21.22 213.6-23.66 209.92-23.66L209.92-23.66Q206.6-23.66 205.12-21.2 203.64-18.75 203.64-13.23ZM250.57-12.28L231.72-12.28Q231.72-7.74 233.6-5.27 235.48-2.81 239.09-2.81L239.09-2.81Q241.95-2.81 243.67-3.96 245.39-5.1 246-6.86L246-6.86 249.86-5.76Q247.49 0.49 239.09 0.49L239.09 0.49Q233.23 0.49 230.17-3 227.1-6.49 227.1-13.38L227.1-13.38Q227.1-19.92 230.17-23.41 233.23-26.9 238.92-26.9L238.92-26.9Q244.75-26.9 247.66-23.39 250.57-19.87 250.57-12.87L250.57-12.87 250.57-12.28ZM231.77-15.65L246.02-15.65Q245.66-19.82 243.9-21.74 242.14-23.66 238.85-23.66L238.85-23.66Q235.65-23.66 233.78-21.52 231.91-19.38 231.77-15.65L231.77-15.65ZM273.2-26.42L277.86-26.42 267.99 0 262.79 0 253.2-26.42 257.89-26.42 263.7-9.23Q263.87-8.74 264.28-7.29 264.7-5.83 265.38-3.44L265.38-3.44Q265.7-4.39 266.01-5.43 266.31-6.47 266.62-7.45 266.92-8.42 267.19-9.18L267.19-9.18 273.2-26.42ZM303.86-12.28L285.01-12.28Q285.01-7.74 286.89-5.27 288.77-2.81 292.38-2.81L292.38-2.81Q295.24-2.81 296.96-3.96 298.68-5.1 299.29-6.86L299.29-6.86 303.15-5.76Q300.78 0.49 292.38 0.49L292.38 0.49Q286.52 0.49 283.46-3 280.4-6.49 280.4-13.38L280.4-13.38Q280.4-19.92 283.46-23.41 286.52-26.9 292.21-26.9L292.21-26.9Q298.05-26.9 300.95-23.39 303.86-19.87 303.86-12.87L303.86-12.87 303.86-12.28ZM285.06-15.65L299.32-15.65Q298.95-19.82 297.19-21.74 295.43-23.66 292.14-23.66L292.14-23.66Q288.94-23.66 287.07-21.52 285.2-19.38 285.06-15.65L285.06-15.65ZM309.69-36.23L314.08-36.23 314.08 0 309.69 0 309.69-36.23ZM343.38-13.23L343.38-13.23Q343.38-6.3 340.33-2.91 337.28 0.49 331.47 0.49L331.47 0.49Q325.68 0.49 322.73-3.04 319.77-6.57 319.77-13.23L319.77-13.23Q319.77-20.07 322.74-23.49 325.7-26.9 331.61-26.9L331.61-26.9Q337.67-26.9 340.52-23.57 343.38-20.24 343.38-13.23ZM338.77-13.23L338.77-13.23Q338.77-18.7 337.14-21.18 335.52-23.66 331.69-23.66L331.69-23.66Q327.83-23.66 326.11-21.13 324.39-18.6 324.39-13.23L324.39-13.23Q324.39-8.01 326.08-5.38 327.78-2.76 331.42-2.76L331.42-2.76Q335.37-2.76 337.07-5.3 338.77-7.84 338.77-13.23ZM371.43-13.33L371.43-13.33Q371.43-6.42 369-2.97 366.57 0.49 361.71 0.49L361.71 0.49Q355.61 0.49 353.51-4.1L353.51-4.1 353.39-4.1Q353.49-3.93 353.49 0.05L353.49 0.05 353.49 10.38 349.09 10.38 349.09-21.02Q349.09-23.05 349.05-24.4 349.02-25.76 348.94-26.42L348.94-26.42 353.19-26.42Q353.22-26.32 353.28-25.46 353.34-24.61 353.39-23.62 353.44-22.63 353.44-22.17L353.44-22.17 353.53-22.17Q354.71-24.61 356.63-25.74 358.56-26.88 361.71-26.88L361.71-26.88Q366.6-26.88 369.01-23.61 371.43-20.34 371.43-13.33ZM366.82-13.23L366.82-13.23Q366.82-18.75 365.33-21.12 363.84-23.49 360.59-23.49L360.59-23.49Q356.98-23.49 355.23-20.98 353.49-18.48 353.49-12.89L353.49-12.89Q353.49-7.69 355.15-5.22 356.81-2.76 360.54-2.76L360.54-2.76Q363.81-2.76 365.31-5.16 366.82-7.57 366.82-13.23ZM399.36-12.28L380.51-12.28Q380.51-7.74 382.39-5.27 384.27-2.81 387.88-2.81L387.88-2.81Q390.74-2.81 392.46-3.96 394.18-5.1 394.79-6.86L394.79-6.86 398.65-5.76Q396.28 0.49 387.88 0.49L387.88 0.49Q382.02 0.49 378.96-3 375.9-6.49 375.9-13.38L375.9-13.38Q375.9-19.92 378.96-23.41 382.02-26.9 387.71-26.9L387.71-26.9Q393.55-26.9 396.45-23.39 399.36-19.87 399.36-12.87L399.36-12.87 399.36-12.28ZM380.56-15.65L394.82-15.65Q394.45-19.82 392.69-21.74 390.93-23.66 387.64-23.66L387.64-23.66Q384.44-23.66 382.57-21.52 380.71-19.38 380.56-15.65L380.56-15.65ZM409.68-13.77L409.68-13.77 409.68 0 405.29 0 405.29-20.26Q405.29-21.66 405.25-23.19 405.22-24.73 405.14-26.42L405.14-26.42 409.29-26.42Q409.34-25.29 409.38-24.39 409.41-23.49 409.44-22.81 409.46-22.14 409.48-21.69 409.49-21.24 409.49-21.02L409.49-21.02 409.59-21.02Q410.32-23.41 411.2-24.73L411.2-24.73Q412.05-25.95 413.15-26.43 414.25-26.9 415.86-26.9L415.86-26.9Q416.76-26.9 417.64-26.66L417.64-26.66 417.64-22.63Q416.81-22.88 415.3-22.88L415.3-22.88Q412.56-22.88 411.12-20.52 409.68-18.16 409.68-13.77Z" opacity="1" transform="matrix(1,0,0,1,0,0)" fill="black" class="slogan-text-1" id="SvgjsPath3068"></path></svg></g></svg></g></svg></g></svg></g></svg></g></svg></g></svg></g><g><path d="M245.816 0c68.262 0 123.6 55.338 123.6 123.6 0 68.262-55.338 123.6-123.6 123.6-51.927 0-96.374-32.021-114.674-77.394l2.153 0c18.189 44.246 61.717 75.401 112.521 75.4 67.161 0 121.606-54.445 121.606-121.606 0-67.161-54.445-121.606-121.606-121.606-50.804 0-94.332 31.154-112.521 75.4l-2.153 0c18.3-45.373 62.747-77.394 114.674-77.394z" fill="black" stroke="transparent"></path></g></svg></g><defs><mask></mask></defs></svg><rect width="395.52" height="247.2" fill="black" stroke="none" visibility="hidden"></rect></g></mask></svg><rect width="395.52" height="247.2" fill="black" stroke="none" visibility="hidden"></rect></g></mask><linearGradient x1="0" x2="1" y1="0.578" y2="0.595" id="a785efd3-8703-4ac0-a3b2-538a3243f04f"><stop stop-color="#6ee2f5" offset="0"></stop><stop stop-color="#6454f0" offset="1"></stop></linearGradient><rect width="395.52" height="247.2" fill="url(#a785efd3-8703-4ac0-a3b2-538a3243f04f)" mask="url(#3ce6eeb5-2815-4b89-9a40-5fbcb6f3a0d6)" data-fill-palette-color="secondary"></rect><mask id="4f2c8b46-7ad1-43f2-acbb-d33f7f075e6f"><g id="SvgjsG3116"><svg viewBox="0 0 395.52 247.2" height="247.2" width="395.52"><g><svg></svg></g><g><svg viewBox="0 0 395.52 247.2" height="247.2" width="395.52"><g transform="matrix(1,0,0,1,75.54432,82.61311570657826)"><svg viewBox="0 0 244.43135999999998 81.97376858684348" height="81.97376858684348" width="244.43135999999998"><g><svg viewBox="0 0 244.43135999999998 81.97376858684348" height="81.97376858684348" width="244.43135999999998"><g><svg viewBox="0 0 244.43135999999998 81.97376858684348" height="81.97376858684348" width="244.43135999999998"><g><svg viewBox="0 0 244.43135999999998 81.97376858684348" height="81.97376858684348" width="244.43135999999998"><g id="SvgjsG3115"><svg viewBox="0 0 244.43135999999998 81.97376858684348" height="81.97376858684348" width="244.43135999999998" id="SvgjsSvg3114"><g><svg viewBox="0 0 244.43135999999998 44.21273377512221" height="44.21273377512221" width="244.43135999999998"><g transform="matrix(1,0,0,1,0,0)"><svg width="244.43135999999998" viewBox="1.75 -32.7 184.08 33.300000000000004" height="44.21273377512221" data-palette-color="url(#d6be4c5f-7475-4f3c-b60f-47f3ec8189e1)"><g class="wordmark-text-0" data-fill-palette-color="primary" id="SvgjsG3113"></g></svg></g></svg></g><g transform="matrix(1,0,0,1,0,54.650299113817965)"><svg viewBox="0 0 244.43135999999998 27.323469473025522" height="27.323469473025522" width="244.43135999999998"><g transform="matrix(1,0,0,1,0,0)"><svg width="244.43135999999998" viewBox="0.71 -36.23 416.93 46.61" height="27.323469473025522" data-palette-color="url(#a785efd3-8703-4ac0-a3b2-538a3243f04f)"></svg></g></svg></g></svg></g></svg></g></svg></g></svg></g></svg></g><g><path d="M245.816 0c68.262 0 123.6 55.338 123.6 123.6 0 68.262-55.338 123.6-123.6 123.6-51.927 0-96.374-32.021-114.674-77.394l2.153 0c18.189 44.246 61.717 75.401 112.521 75.4 67.161 0 121.606-54.445 121.606-121.606 0-67.161-54.445-121.606-121.606-121.606-50.804 0-94.332 31.154-112.521 75.4l-2.153 0c18.3-45.373 62.747-77.394 114.674-77.394z" fill="white" stroke="transparent"></path></g></svg></g><defs><mask></mask></defs><mask><g id="SvgjsG3112"><svg viewBox="0 0 395.52 247.2" height="247.2" width="395.52"><g><svg></svg></g><g><svg viewBox="0 0 395.52 247.2" height="247.2" width="395.52"><g transform="matrix(1,0,0,1,75.54432,82.61311570657826)"><svg viewBox="0 0 244.43135999999998 81.97376858684348" height="81.97376858684348" width="244.43135999999998"><g><svg viewBox="0 0 244.43135999999998 81.97376858684348" height="81.97376858684348" width="244.43135999999998"><g><svg viewBox="0 0 244.43135999999998 81.97376858684348" height="81.97376858684348" width="244.43135999999998"><g><svg viewBox="0 0 244.43135999999998 81.97376858684348" height="81.97376858684348" width="244.43135999999998"><g id="SvgjsG3111"><svg viewBox="0 0 244.43135999999998 81.97376858684348" height="81.97376858684348" width="244.43135999999998" id="SvgjsSvg3110"><g><svg viewBox="0 0 244.43135999999998 44.21273377512221" height="44.21273377512221" width="244.43135999999998"><g transform="matrix(1,0,0,1,0,0)"><svg width="244.43135999999998" viewBox="1.75 -32.7 184.08 33.300000000000004" height="44.21273377512221" data-palette-color="url(#d6be4c5f-7475-4f3c-b60f-47f3ec8189e1)"><g class="wordmark-text-0" data-fill-palette-color="primary" id="SvgjsG3109"><path d="M4.1-30.6L1.75-30.6 1.75-31.5 17.3-31.5Q21.25-31.5 22.85-31.95L22.85-31.95Q22.4-29.9 22.4-26.25L22.4-26.25 22.4-23.9 21.25-23.9 20.5-29Q20.4-30.1 19.1-30.1L19.1-30.1 8.9-30.1 8.9-16.45 18.75-16.45Q19.25-16.45 19.35-17.15L19.35-17.15 19.6-20.25 20.5-20.25 20.5-11.25 19.6-11.25 19.35-14.35Q19.25-15.05 18.75-15.05L18.75-15.05 8.9-15.05 8.9-1.6Q8.9-0.9 9.6-0.9L9.6-0.9 13.95-0.9 13.95 0 1.75 0 1.75-0.9 4.1-0.9Q4.8-0.9 4.8-1.6L4.8-1.6 4.8-30Q4.8-30.6 4.1-30.6L4.1-30.6ZM27.9-1.6L27.9-1.6 27.9-30.8Q27.9-31.5 27.2-31.5L27.2-31.5 24.85-31.5 24.85-32.4 27.3-32.4Q30.3-32.4 31.5-32.7L31.5-32.7 31.5-1.6Q31.5-0.9 32.2-0.9L32.2-0.9 34.55-0.9 34.55 0 24.85 0 24.85-0.9 27.2-0.9Q27.9-0.9 27.9-1.6ZM40.84-2.45Q38.05-5.5 38.05-10.8 38.05-16.1 40.84-19.15 43.65-22.2 48.15-22.2 52.65-22.2 55.47-19.15 58.3-16.1 58.3-10.8 58.3-5.5 55.47-2.45 52.65 0.6 48.15 0.6 43.65 0.6 40.84-2.45ZM43.65-18.32Q41.84-15.55 41.84-10.8 41.84-6.05 43.65-3.28 45.45-0.5 48.15-0.5 50.84-0.5 52.67-3.28 54.5-6.05 54.5-10.8 54.5-15.55 52.67-18.32 50.84-21.1 48.15-21.1 45.45-21.1 43.65-18.32ZM75.04-22.2Q76.99-22.2 78.22-20.55 79.44-18.9 79.44-16.4 79.44-13.9 77.39-13.9L77.39-13.9Q76.19-13.9 75.44-14.65L75.44-14.65Q76.09-16.1 76.09-17.6L76.09-17.6Q76.09-20.25 73.89-20.25L73.89-20.25Q72.04-20.25 70.62-17.18 69.19-14.1 69.19-8.25L69.19-8.25 69.19-1.6Q69.19-0.9 69.89-0.9L69.89-0.9 73.24-0.9 73.24 0 62.54 0 62.54-0.9 64.89-0.9Q65.59-0.9 65.59-1.6L65.59-1.6 65.59-20Q65.59-20.7 64.89-20.7L64.89-20.7 62.54-20.7 62.54-21.6 64.99-21.6Q67.99-21.6 69.19-21.9L69.19-21.9 69.19-15.5Q69.99-18.95 71.54-20.58 73.09-22.2 75.04-22.2ZM91.79-22.2L91.79-22.2Q95.24-22.2 97.24-19.9 99.24-17.6 99.24-13.15L99.24-13.15Q99.24-12.25 99.14-11.15L99.14-11.15 85.49-11.15 85.49-10.8Q85.49-6.05 87.22-3.33 88.94-0.6 91.67-0.6 94.39-0.6 96.14-2 97.89-3.4 98.54-6L98.54-6 99.49-5.8Q98.89-2.75 96.74-1.07 94.59 0.6 91.79 0.6L91.79 0.6Q87.44 0.6 84.57-2.45 81.69-5.5 81.69-10.78 81.69-16.05 84.59-19.13 87.49-22.2 91.79-22.2ZM95.79-14.85L95.79-14.85Q95.79-21 91.19-21L91.19-21Q88.89-21 87.27-18.5 85.64-16 85.54-12.15L85.54-12.15 95.59-12.15Q95.79-13.85 95.79-14.85ZM124.34-14.6L124.34-14.6 124.34-1.5Q124.34-0.9 125.04-0.9L125.04-0.9 127.39-0.9 127.39 0 118.39 0 118.39-0.9 120.04-0.9Q120.74-0.9 120.74-1.5L120.74-1.5 120.74-15.25Q120.74-17.8 119.61-19.03 118.49-20.25 116.64-20.25L116.64-20.25Q114.04-20.25 112.34-17.18 110.64-14.1 110.64-8.35L110.64-8.35 110.64-1.6Q110.64-0.9 111.34-0.9L111.34-0.9 112.99-0.9 112.99 0 103.99 0 103.99-0.9 106.34-0.9Q107.04-0.9 107.04-1.5L107.04-1.5 107.04-20Q107.04-20.7 106.34-20.7L106.34-20.7 103.99-20.7 103.99-21.6 106.44-21.6Q109.44-21.6 110.64-21.9L110.64-21.9 110.64-15.1Q112.34-22.2 118.14-22.2L118.14-22.2Q120.74-22.2 122.54-20.33 124.34-18.45 124.34-14.6ZM141.34-21L141.34-21Q138.49-21 136.71-18.28 134.94-15.55 134.94-10.8 134.94-6.05 136.66-3.33 138.39-0.6 141.11-0.6 143.84-0.6 145.59-2 147.34-3.4 147.99-6L147.99-6 148.94-5.8Q148.34-2.75 146.19-1.07 144.04 0.6 141.24 0.6L141.24 0.6Q136.89 0.6 134.01-2.45 131.14-5.5 131.14-10.8 131.14-16.1 134.04-19.15 136.94-22.2 141.34-22.2L141.34-22.2Q144.74-22.2 146.44-20.68 148.14-19.15 148.14-16.6L148.14-16.6Q148.14-13.3 146.29-13.3L146.29-13.3Q144.79-13.3 143.89-14.1L143.89-14.1Q144.59-15.6 144.59-17.23 144.59-18.85 143.76-19.93 142.94-21 141.34-21ZM155.48-1.6L155.48-1.6 155.48-20Q155.48-20.7 154.78-20.7L154.78-20.7 152.43-20.7 152.43-21.6 154.88-21.6Q157.88-21.6 159.08-21.9L159.08-21.9 159.08-1.5Q159.08-0.9 159.78-0.9L159.78-0.9 162.13-0.9 162.13 0 152.43 0 152.43-0.9 154.78-0.9Q155.48-0.9 155.48-1.6ZM155.61-27.13Q154.93-27.8 154.93-28.8 154.93-29.8 155.61-30.48 156.28-31.15 157.28-31.15 158.28-31.15 158.96-30.48 159.63-29.8 159.63-28.8 159.63-27.8 158.96-27.13 158.28-26.45 157.28-26.45 156.28-26.45 155.61-27.13ZM177.93-11.2L177.93-11.65 177.98-13.4 177.98-15.15Q177.98-21 174.18-21L174.18-21Q172.53-21 171.61-19.88 170.68-18.75 170.68-17.25 170.68-15.75 171.08-14.65L171.08-14.65Q170.23-13.9 168.73-13.9 167.23-13.9 167.23-16.35 167.23-18.8 169.16-20.5 171.08-22.2 174.63-22.2L174.63-22.2Q181.58-22.2 181.58-14L181.58-14 181.58-3.75Q181.58-1.05 183.08-1.05L183.08-1.05Q183.78-1.05 184.31-1.7 184.83-2.35 184.83-3.2 184.83-4.05 184.68-4.8L184.68-4.8 185.63-4.95Q185.83-4.2 185.83-3.3L185.83-3.3Q185.83-1.5 184.76-0.45 183.68 0.6 181.93 0.6 180.18 0.6 179.08-0.83 177.98-2.25 177.98-5.1L177.98-5.1 177.98-6Q177.13-2.6 175.28-1 173.43 0.6 171.01 0.6 168.58 0.6 167.11-0.93 165.63-2.45 165.63-4.98 165.63-7.5 167.98-9.47 170.33-11.45 174.73-11.45L174.73-11.45Q175.68-11.45 177.93-11.2L177.93-11.2ZM172.13-1.3L172.13-1.3Q174.23-1.3 175.91-3.68 177.58-6.05 177.88-10.35L177.88-10.35Q177.38-10.4 176.48-10.4L176.48-10.4Q172.48-10.4 170.76-8.72 169.03-7.05 169.03-4.85L169.03-4.85Q169.03-3.4 169.88-2.35 170.73-1.3 172.13-1.3Z" fill="black"></path></g></svg></g></svg></g><g transform="matrix(1,0,0,1,0,54.650299113817965)"><svg viewBox="0 0 244.43135999999998 27.323469473025522" height="27.323469473025522" width="244.43135999999998"><g transform="matrix(1,0,0,1,0,0)"><svg width="244.43135999999998" viewBox="0.71 -36.23 416.93 46.61" height="27.323469473025522" data-palette-color="url(#a785efd3-8703-4ac0-a3b2-538a3243f04f)"><path d="M13.96-23.22L8.81-23.22 8.81 0 4.42 0 4.42-23.22 0.71-23.22 0.71-26.42 4.42-26.42 4.42-29.39Q4.42-33.01 6.01-34.59 7.59-36.18 10.86-36.18L10.86-36.18Q12.7-36.18 13.96-35.89L13.96-35.89 13.96-32.54Q12.79-32.74 12.01-32.74L12.01-32.74Q10.33-32.74 9.57-31.88 8.81-31.03 8.81-28.78L8.81-28.78 8.81-26.42 13.96-26.42 13.96-23.22ZM34.28-4.52L34.2-4.52Q32.69-1.78 30.7-0.65 28.71 0.49 25.75 0.49L25.75 0.49Q21.41 0.49 19.4-1.67 17.38-3.83 17.38-8.81L17.38-8.81 17.38-26.42 21.8-26.42 21.8-9.67Q21.8-5.71 23.03-4.31 24.27-2.91 27.24-2.91L27.24-2.91Q30.42-2.91 32.25-5.08 34.08-7.25 34.08-11.11L34.08-11.11 34.08-26.42 38.47-26.42 38.47-5.64Q38.47-3.34 38.51-1.93 38.55-0.51 38.62 0L38.62 0 34.47 0Q34.45-0.12 34.39-1.15 34.32-2.17 34.28-4.52L34.28-4.52ZM45.55-36.23L49.95-36.23 49.95 0 45.55 0 45.55-36.23ZM56.9-36.23L61.3-36.23 61.3 0 56.9 0 56.9-36.23ZM88.08-7.3L88.08-7.3Q88.08-3.56 85.26-1.54 82.44 0.49 77.36 0.49L77.36 0.49Q72.43 0.49 69.76-1.14 67.08-2.76 66.28-6.2L66.28-6.2 70.16-6.96Q70.72-4.83 72.48-3.85 74.24-2.86 77.36-2.86L77.36-2.86Q80.71-2.86 82.26-3.88 83.81-4.91 83.81-6.96L83.81-6.96Q83.81-8.52 82.73-9.5 81.66-10.47 79.26-11.11L79.26-11.11Q76.43-11.87 74.76-12.35 73.09-12.84 72.18-13.2 71.28-13.55 70.74-13.87L70.74-13.87Q69.13-14.79 68.23-16.14 67.33-17.48 67.33-19.43L67.33-19.43Q67.33-23.05 69.9-24.94 72.48-26.83 77.41-26.83L77.41-26.83Q81.78-26.83 84.36-25.29 86.93-23.75 87.61-20.36L87.61-20.36 83.66-19.87Q83.29-21.63 81.69-22.57 80.09-23.51 77.41-23.51L77.41-23.51Q74.43-23.51 73.01-22.61 71.6-21.7 71.6-19.87L71.6-19.87Q71.6-18.53 72.4-17.66 73.21-16.8 75.48-16.24L75.48-16.24Q78.53-15.5 81.29-14.64 84.05-13.77 85.25-12.92L85.25-12.92Q86.64-11.91 87.36-10.56 88.08-9.2 88.08-7.3ZM103.65-3.44L103.65-0.2Q101.5 0.39 99.21 0.39L99.21 0.39Q96.57 0.39 95.25-1.11 93.94-2.61 93.94-5.59L93.94-5.59 93.94-23.22 90.88-23.22 90.88-26.42 94.11-26.42 95.4-32.32 98.33-32.32 98.33-26.42 103.21-26.42 103.21-23.22 98.33-23.22 98.33-6.54Q98.33-4.64 98.95-3.87 99.58-3.1 101.11-3.1L101.11-3.1Q101.94-3.1 103.65-3.44L103.65-3.44ZM114.37 0.49L114.37 0.49Q110.39 0.49 108.39-1.61 106.39-3.71 106.39-7.37L106.39-7.37Q106.39-11.47 109.08-13.67 111.78-15.87 117.79-16.02L117.79-16.02 123.72-16.11 123.72-17.55Q123.72-20.78 122.35-22.17 120.98-23.56 118.06-23.56L118.06-23.56Q115.1-23.56 113.76-22.56 112.42-21.56 112.15-19.36L112.15-19.36 107.56-19.78Q108.68-26.9 118.15-26.9L118.15-26.9Q123.13-26.9 125.65-24.62 128.16-22.34 128.16-18.02L128.16-18.02 128.16-6.64Q128.16-4.69 128.68-3.7 129.19-2.71 130.63-2.71L130.63-2.71Q131.31-2.71 132.07-2.88L132.07-2.88 132.07-0.15Q131.24 0.05 130.38 0.15 129.53 0.24 128.68 0.24L128.68 0.24Q126.23 0.24 125.12-1.04 124.01-2.32 123.87-5.05L123.87-5.05 123.72-5.05Q122.03-2.03 119.8-0.77 117.57 0.49 114.37 0.49ZM123.72-10.86L123.72-13.04 118.91-12.94Q115.83-12.92 114.22-12.3L114.22-12.3Q112.61-11.72 111.76-10.5 110.9-9.28 110.9-7.3L110.9-7.3Q110.9-5.15 112.06-3.98 113.22-2.81 115.37-2.81L115.37-2.81Q117.81-2.81 119.67-3.91L119.67-3.91Q121.55-5 122.63-6.92 123.72-8.84 123.72-10.86L123.72-10.86ZM145.81 0.49L145.81 0.49Q140.27 0.49 137.35-3.02 134.44-6.52 134.44-13.23L134.44-13.23Q134.44-19.9 137.36-23.4 140.29-26.9 145.76-26.9L145.76-26.9Q149.82-26.9 152.49-24.8 155.16-22.71 155.85-19.02L155.85-19.02 151.33-18.68Q150.99-20.87 149.6-22.17 148.2-23.46 145.64-23.46L145.64-23.46Q142.15-23.46 140.59-21.14 139.02-18.82 139.02-13.33L139.02-13.33Q139.02-8.06 140.69-5.52 142.35-2.98 145.69-2.98L145.69-2.98Q148.03-2.98 149.61-4.25 151.18-5.52 151.55-8.15L151.55-8.15 155.99-7.86Q155.65-5.32 154.3-3.44 152.94-1.56 150.78-0.54 148.62 0.49 145.81 0.49ZM168.54-12.06L165.32-9.4 165.32 0 160.92 0 160.92-36.23 165.32-36.23 165.32-13.6 176.91-26.42 182.06-26.42 171.35-15.06 182.63 0 177.48 0 168.54-12.06ZM221.51 0L217.32 0Q217.27-0.27 217.21-1.01 217.14-1.76 217.11-2.66 217.07-3.56 217.07-4.25L217.07-4.25 216.97-4.25Q215.75-1.71 213.74-0.61 211.72 0.49 208.75 0.49L208.75 0.49Q203.74 0.49 201.38-2.88 199.03-6.25 199.03-13.09L199.03-13.09Q199.03-20 201.46-23.45 203.89-26.9 208.75-26.9L208.75-26.9Q211.75-26.9 213.75-25.81 215.75-24.71 216.97-22.31L216.97-22.31 217.02-22.31 216.97-25.27 216.97-36.23 221.37-36.23 221.37-5.44Q221.37-3.37 221.4-2.01 221.44-0.66 221.51 0L221.51 0ZM203.64-13.23L203.64-13.23Q203.64-7.69 205.11-5.3 206.57-2.91 209.87-2.91L209.87-2.91Q213.6-2.91 215.29-5.49 216.97-8.08 216.97-13.53L216.97-13.53Q216.97-18.77 215.29-21.22 213.6-23.66 209.92-23.66L209.92-23.66Q206.6-23.66 205.12-21.2 203.64-18.75 203.64-13.23ZM250.57-12.28L231.72-12.28Q231.72-7.74 233.6-5.27 235.48-2.81 239.09-2.81L239.09-2.81Q241.95-2.81 243.67-3.96 245.39-5.1 246-6.86L246-6.86 249.86-5.76Q247.49 0.49 239.09 0.49L239.09 0.49Q233.23 0.49 230.17-3 227.1-6.49 227.1-13.38L227.1-13.38Q227.1-19.92 230.17-23.41 233.23-26.9 238.92-26.9L238.92-26.9Q244.75-26.9 247.66-23.39 250.57-19.87 250.57-12.87L250.57-12.87 250.57-12.28ZM231.77-15.65L246.02-15.65Q245.66-19.82 243.9-21.74 242.14-23.66 238.85-23.66L238.85-23.66Q235.65-23.66 233.78-21.52 231.91-19.38 231.77-15.65L231.77-15.65ZM273.2-26.42L277.86-26.42 267.99 0 262.79 0 253.2-26.42 257.89-26.42 263.7-9.23Q263.87-8.74 264.28-7.29 264.7-5.83 265.38-3.44L265.38-3.44Q265.7-4.39 266.01-5.43 266.31-6.47 266.62-7.45 266.92-8.42 267.19-9.18L267.19-9.18 273.2-26.42ZM303.86-12.28L285.01-12.28Q285.01-7.74 286.89-5.27 288.77-2.81 292.38-2.81L292.38-2.81Q295.24-2.81 296.96-3.96 298.68-5.1 299.29-6.86L299.29-6.86 303.15-5.76Q300.78 0.49 292.38 0.49L292.38 0.49Q286.52 0.49 283.46-3 280.4-6.49 280.4-13.38L280.4-13.38Q280.4-19.92 283.46-23.41 286.52-26.9 292.21-26.9L292.21-26.9Q298.05-26.9 300.95-23.39 303.86-19.87 303.86-12.87L303.86-12.87 303.86-12.28ZM285.06-15.65L299.32-15.65Q298.95-19.82 297.19-21.74 295.43-23.66 292.14-23.66L292.14-23.66Q288.94-23.66 287.07-21.52 285.2-19.38 285.06-15.65L285.06-15.65ZM309.69-36.23L314.08-36.23 314.08 0 309.69 0 309.69-36.23ZM343.38-13.23L343.38-13.23Q343.38-6.3 340.33-2.91 337.28 0.49 331.47 0.49L331.47 0.49Q325.68 0.49 322.73-3.04 319.77-6.57 319.77-13.23L319.77-13.23Q319.77-20.07 322.74-23.49 325.7-26.9 331.61-26.9L331.61-26.9Q337.67-26.9 340.52-23.57 343.38-20.24 343.38-13.23ZM338.77-13.23L338.77-13.23Q338.77-18.7 337.14-21.18 335.52-23.66 331.69-23.66L331.69-23.66Q327.83-23.66 326.11-21.13 324.39-18.6 324.39-13.23L324.39-13.23Q324.39-8.01 326.08-5.38 327.78-2.76 331.42-2.76L331.42-2.76Q335.37-2.76 337.07-5.3 338.77-7.84 338.77-13.23ZM371.43-13.33L371.43-13.33Q371.43-6.42 369-2.97 366.57 0.49 361.71 0.49L361.71 0.49Q355.61 0.49 353.51-4.1L353.51-4.1 353.39-4.1Q353.49-3.93 353.49 0.05L353.49 0.05 353.49 10.38 349.09 10.38 349.09-21.02Q349.09-23.05 349.05-24.4 349.02-25.76 348.94-26.42L348.94-26.42 353.19-26.42Q353.22-26.32 353.28-25.46 353.34-24.61 353.39-23.62 353.44-22.63 353.44-22.17L353.44-22.17 353.53-22.17Q354.71-24.61 356.63-25.74 358.56-26.88 361.71-26.88L361.71-26.88Q366.6-26.88 369.01-23.61 371.43-20.34 371.43-13.33ZM366.82-13.23L366.82-13.23Q366.82-18.75 365.33-21.12 363.84-23.49 360.59-23.49L360.59-23.49Q356.98-23.49 355.23-20.98 353.49-18.48 353.49-12.89L353.49-12.89Q353.49-7.69 355.15-5.22 356.81-2.76 360.54-2.76L360.54-2.76Q363.81-2.76 365.31-5.16 366.82-7.57 366.82-13.23ZM399.36-12.28L380.51-12.28Q380.51-7.74 382.39-5.27 384.27-2.81 387.88-2.81L387.88-2.81Q390.74-2.81 392.46-3.96 394.18-5.1 394.79-6.86L394.79-6.86 398.65-5.76Q396.28 0.49 387.88 0.49L387.88 0.49Q382.02 0.49 378.96-3 375.9-6.49 375.9-13.38L375.9-13.38Q375.9-19.92 378.96-23.41 382.02-26.9 387.71-26.9L387.71-26.9Q393.55-26.9 396.45-23.39 399.36-19.87 399.36-12.87L399.36-12.87 399.36-12.28ZM380.56-15.65L394.82-15.65Q394.45-19.82 392.69-21.74 390.93-23.66 387.64-23.66L387.64-23.66Q384.44-23.66 382.57-21.52 380.71-19.38 380.56-15.65L380.56-15.65ZM409.68-13.77L409.68-13.77 409.68 0 405.29 0 405.29-20.26Q405.29-21.66 405.25-23.19 405.22-24.73 405.14-26.42L405.14-26.42 409.29-26.42Q409.34-25.29 409.38-24.39 409.41-23.49 409.44-22.81 409.46-22.14 409.48-21.69 409.49-21.24 409.49-21.02L409.49-21.02 409.59-21.02Q410.32-23.41 411.2-24.73L411.2-24.73Q412.05-25.95 413.15-26.43 414.25-26.9 415.86-26.9L415.86-26.9Q416.76-26.9 417.64-26.66L417.64-26.66 417.64-22.63Q416.81-22.88 415.3-22.88L415.3-22.88Q412.56-22.88 411.12-20.52 409.68-18.16 409.68-13.77Z" opacity="1" transform="matrix(1,0,0,1,0,0)" fill="black" class="slogan-text-1" id="SvgjsPath3108"></path></svg></g></svg></g></svg></g></svg></g></svg></g></svg></g></svg></g><g><path d="M245.816 0c68.262 0 123.6 55.338 123.6 123.6 0 68.262-55.338 123.6-123.6 123.6-51.927 0-96.374-32.021-114.674-77.394l2.153 0c18.189 44.246 61.717 75.401 112.521 75.4 67.161 0 121.606-54.445 121.606-121.606 0-67.161-54.445-121.606-121.606-121.606-50.804 0-94.332 31.154-112.521 75.4l-2.153 0c18.3-45.373 62.747-77.394 114.674-77.394z" fill="black" stroke="transparent"></path></g></svg></g><defs><mask></mask></defs></svg><rect width="395.52" height="247.2" fill="black" stroke="none" visibility="hidden"></rect></g></mask><mask><g id="SvgjsG3107"><svg viewBox="0 0 395.52 247.2" height="247.2" width="395.52"><g><svg></svg></g><g><svg viewBox="0 0 395.52 247.2" height="247.2" width="395.52"><g transform="matrix(1,0,0,1,75.54432,82.61311570657826)"><svg viewBox="0 0 244.43135999999998 81.97376858684348" height="81.97376858684348" width="244.43135999999998"><g><svg viewBox="0 0 244.43135999999998 81.97376858684348" height="81.97376858684348" width="244.43135999999998"><g><svg viewBox="0 0 244.43135999999998 81.97376858684348" height="81.97376858684348" width="244.43135999999998"><g><svg viewBox="0 0 244.43135999999998 81.97376858684348" height="81.97376858684348" width="244.43135999999998"><g id="SvgjsG3106"><svg viewBox="0 0 244.43135999999998 81.97376858684348" height="81.97376858684348" width="244.43135999999998" id="SvgjsSvg3105"><g><svg viewBox="0 0 244.43135999999998 44.21273377512221" height="44.21273377512221" width="244.43135999999998"><g transform="matrix(1,0,0,1,0,0)"><svg width="244.43135999999998" viewBox="1.75 -32.7 184.08 33.300000000000004" height="44.21273377512221" data-palette-color="url(#d6be4c5f-7475-4f3c-b60f-47f3ec8189e1)"><g class="wordmark-text-0" data-fill-palette-color="primary" id="SvgjsG3104"></g></svg></g></svg></g><g transform="matrix(1,0,0,1,0,54.650299113817965)"><svg viewBox="0 0 244.43135999999998 27.323469473025522" height="27.323469473025522" width="244.43135999999998"><g transform="matrix(1,0,0,1,0,0)"><svg width="244.43135999999998" viewBox="0.71 -36.23 416.93 46.61" height="27.323469473025522" data-palette-color="url(#a785efd3-8703-4ac0-a3b2-538a3243f04f)"><path d="M13.96-23.22L8.81-23.22 8.81 0 4.42 0 4.42-23.22 0.71-23.22 0.71-26.42 4.42-26.42 4.42-29.39Q4.42-33.01 6.01-34.59 7.59-36.18 10.86-36.18L10.86-36.18Q12.7-36.18 13.96-35.89L13.96-35.89 13.96-32.54Q12.79-32.74 12.01-32.74L12.01-32.74Q10.33-32.74 9.57-31.88 8.81-31.03 8.81-28.78L8.81-28.78 8.81-26.42 13.96-26.42 13.96-23.22ZM34.28-4.52L34.2-4.52Q32.69-1.78 30.7-0.65 28.71 0.49 25.75 0.49L25.75 0.49Q21.41 0.49 19.4-1.67 17.38-3.83 17.38-8.81L17.38-8.81 17.38-26.42 21.8-26.42 21.8-9.67Q21.8-5.71 23.03-4.31 24.27-2.91 27.24-2.91L27.24-2.91Q30.42-2.91 32.25-5.08 34.08-7.25 34.08-11.11L34.08-11.11 34.08-26.42 38.47-26.42 38.47-5.64Q38.47-3.34 38.51-1.93 38.55-0.51 38.62 0L38.62 0 34.47 0Q34.45-0.12 34.39-1.15 34.32-2.17 34.28-4.52L34.28-4.52ZM45.55-36.23L49.95-36.23 49.95 0 45.55 0 45.55-36.23ZM56.9-36.23L61.3-36.23 61.3 0 56.9 0 56.9-36.23ZM88.08-7.3L88.08-7.3Q88.08-3.56 85.26-1.54 82.44 0.49 77.36 0.49L77.36 0.49Q72.43 0.49 69.76-1.14 67.08-2.76 66.28-6.2L66.28-6.2 70.16-6.96Q70.72-4.83 72.48-3.85 74.24-2.86 77.36-2.86L77.36-2.86Q80.71-2.86 82.26-3.88 83.81-4.91 83.81-6.96L83.81-6.96Q83.81-8.52 82.73-9.5 81.66-10.47 79.26-11.11L79.26-11.11Q76.43-11.87 74.76-12.35 73.09-12.84 72.18-13.2 71.28-13.55 70.74-13.87L70.74-13.87Q69.13-14.79 68.23-16.14 67.33-17.48 67.33-19.43L67.33-19.43Q67.33-23.05 69.9-24.94 72.48-26.83 77.41-26.83L77.41-26.83Q81.78-26.83 84.36-25.29 86.93-23.75 87.61-20.36L87.61-20.36 83.66-19.87Q83.29-21.63 81.69-22.57 80.09-23.51 77.41-23.51L77.41-23.51Q74.43-23.51 73.01-22.61 71.6-21.7 71.6-19.87L71.6-19.87Q71.6-18.53 72.4-17.66 73.21-16.8 75.48-16.24L75.48-16.24Q78.53-15.5 81.29-14.64 84.05-13.77 85.25-12.92L85.25-12.92Q86.64-11.91 87.36-10.56 88.08-9.2 88.08-7.3ZM103.65-3.44L103.65-0.2Q101.5 0.39 99.21 0.39L99.21 0.39Q96.57 0.39 95.25-1.11 93.94-2.61 93.94-5.59L93.94-5.59 93.94-23.22 90.88-23.22 90.88-26.42 94.11-26.42 95.4-32.32 98.33-32.32 98.33-26.42 103.21-26.42 103.21-23.22 98.33-23.22 98.33-6.54Q98.33-4.64 98.95-3.87 99.58-3.1 101.11-3.1L101.11-3.1Q101.94-3.1 103.65-3.44L103.65-3.44ZM114.37 0.49L114.37 0.49Q110.39 0.49 108.39-1.61 106.39-3.71 106.39-7.37L106.39-7.37Q106.39-11.47 109.08-13.67 111.78-15.87 117.79-16.02L117.79-16.02 123.72-16.11 123.72-17.55Q123.72-20.78 122.35-22.17 120.98-23.56 118.06-23.56L118.06-23.56Q115.1-23.56 113.76-22.56 112.42-21.56 112.15-19.36L112.15-19.36 107.56-19.78Q108.68-26.9 118.15-26.9L118.15-26.9Q123.13-26.9 125.65-24.62 128.16-22.34 128.16-18.02L128.16-18.02 128.16-6.64Q128.16-4.69 128.68-3.7 129.19-2.71 130.63-2.71L130.63-2.71Q131.31-2.71 132.07-2.88L132.07-2.88 132.07-0.15Q131.24 0.05 130.38 0.15 129.53 0.24 128.68 0.24L128.68 0.24Q126.23 0.24 125.12-1.04 124.01-2.32 123.87-5.05L123.87-5.05 123.72-5.05Q122.03-2.03 119.8-0.77 117.57 0.49 114.37 0.49ZM123.72-10.86L123.72-13.04 118.91-12.94Q115.83-12.92 114.22-12.3L114.22-12.3Q112.61-11.72 111.76-10.5 110.9-9.28 110.9-7.3L110.9-7.3Q110.9-5.15 112.06-3.98 113.22-2.81 115.37-2.81L115.37-2.81Q117.81-2.81 119.67-3.91L119.67-3.91Q121.55-5 122.63-6.92 123.72-8.84 123.72-10.86L123.72-10.86ZM145.81 0.49L145.81 0.49Q140.27 0.49 137.35-3.02 134.44-6.52 134.44-13.23L134.44-13.23Q134.44-19.9 137.36-23.4 140.29-26.9 145.76-26.9L145.76-26.9Q149.82-26.9 152.49-24.8 155.16-22.71 155.85-19.02L155.85-19.02 151.33-18.68Q150.99-20.87 149.6-22.17 148.2-23.46 145.64-23.46L145.64-23.46Q142.15-23.46 140.59-21.14 139.02-18.82 139.02-13.33L139.02-13.33Q139.02-8.06 140.69-5.52 142.35-2.98 145.69-2.98L145.69-2.98Q148.03-2.98 149.61-4.25 151.18-5.52 151.55-8.15L151.55-8.15 155.99-7.86Q155.65-5.32 154.3-3.44 152.94-1.56 150.78-0.54 148.62 0.49 145.81 0.49ZM168.54-12.06L165.32-9.4 165.32 0 160.92 0 160.92-36.23 165.32-36.23 165.32-13.6 176.91-26.42 182.06-26.42 171.35-15.06 182.63 0 177.48 0 168.54-12.06ZM221.51 0L217.32 0Q217.27-0.27 217.21-1.01 217.14-1.76 217.11-2.66 217.07-3.56 217.07-4.25L217.07-4.25 216.97-4.25Q215.75-1.71 213.74-0.61 211.72 0.49 208.75 0.49L208.75 0.49Q203.74 0.49 201.38-2.88 199.03-6.25 199.03-13.09L199.03-13.09Q199.03-20 201.46-23.45 203.89-26.9 208.75-26.9L208.75-26.9Q211.75-26.9 213.75-25.81 215.75-24.71 216.97-22.31L216.97-22.31 217.02-22.31 216.97-25.27 216.97-36.23 221.37-36.23 221.37-5.44Q221.37-3.37 221.4-2.01 221.44-0.66 221.51 0L221.51 0ZM203.64-13.23L203.64-13.23Q203.64-7.69 205.11-5.3 206.57-2.91 209.87-2.91L209.87-2.91Q213.6-2.91 215.29-5.49 216.97-8.08 216.97-13.53L216.97-13.53Q216.97-18.77 215.29-21.22 213.6-23.66 209.92-23.66L209.92-23.66Q206.6-23.66 205.12-21.2 203.64-18.75 203.64-13.23ZM250.57-12.28L231.72-12.28Q231.72-7.74 233.6-5.27 235.48-2.81 239.09-2.81L239.09-2.81Q241.95-2.81 243.67-3.96 245.39-5.1 246-6.86L246-6.86 249.86-5.76Q247.49 0.49 239.09 0.49L239.09 0.49Q233.23 0.49 230.17-3 227.1-6.49 227.1-13.38L227.1-13.38Q227.1-19.92 230.17-23.41 233.23-26.9 238.92-26.9L238.92-26.9Q244.75-26.9 247.66-23.39 250.57-19.87 250.57-12.87L250.57-12.87 250.57-12.28ZM231.77-15.65L246.02-15.65Q245.66-19.82 243.9-21.74 242.14-23.66 238.85-23.66L238.85-23.66Q235.65-23.66 233.78-21.52 231.91-19.38 231.77-15.65L231.77-15.65ZM273.2-26.42L277.86-26.42 267.99 0 262.79 0 253.2-26.42 257.89-26.42 263.7-9.23Q263.87-8.74 264.28-7.29 264.7-5.83 265.38-3.44L265.38-3.44Q265.7-4.39 266.01-5.43 266.31-6.47 266.62-7.45 266.92-8.42 267.19-9.18L267.19-9.18 273.2-26.42ZM303.86-12.28L285.01-12.28Q285.01-7.74 286.89-5.27 288.77-2.81 292.38-2.81L292.38-2.81Q295.24-2.81 296.96-3.96 298.68-5.1 299.29-6.86L299.29-6.86 303.15-5.76Q300.78 0.49 292.38 0.49L292.38 0.49Q286.52 0.49 283.46-3 280.4-6.49 280.4-13.38L280.4-13.38Q280.4-19.92 283.46-23.41 286.52-26.9 292.21-26.9L292.21-26.9Q298.05-26.9 300.95-23.39 303.86-19.87 303.86-12.87L303.86-12.87 303.86-12.28ZM285.06-15.65L299.32-15.65Q298.95-19.82 297.19-21.74 295.43-23.66 292.14-23.66L292.14-23.66Q288.94-23.66 287.07-21.52 285.2-19.38 285.06-15.65L285.06-15.65ZM309.69-36.23L314.08-36.23 314.08 0 309.69 0 309.69-36.23ZM343.38-13.23L343.38-13.23Q343.38-6.3 340.33-2.91 337.28 0.49 331.47 0.49L331.47 0.49Q325.68 0.49 322.73-3.04 319.77-6.57 319.77-13.23L319.77-13.23Q319.77-20.07 322.74-23.49 325.7-26.9 331.61-26.9L331.61-26.9Q337.67-26.9 340.52-23.57 343.38-20.24 343.38-13.23ZM338.77-13.23L338.77-13.23Q338.77-18.7 337.14-21.18 335.52-23.66 331.69-23.66L331.69-23.66Q327.83-23.66 326.11-21.13 324.39-18.6 324.39-13.23L324.39-13.23Q324.39-8.01 326.08-5.38 327.78-2.76 331.42-2.76L331.42-2.76Q335.37-2.76 337.07-5.3 338.77-7.84 338.77-13.23ZM371.43-13.33L371.43-13.33Q371.43-6.42 369-2.97 366.57 0.49 361.71 0.49L361.71 0.49Q355.61 0.49 353.51-4.1L353.51-4.1 353.39-4.1Q353.49-3.93 353.49 0.05L353.49 0.05 353.49 10.38 349.09 10.38 349.09-21.02Q349.09-23.05 349.05-24.4 349.02-25.76 348.94-26.42L348.94-26.42 353.19-26.42Q353.22-26.32 353.28-25.46 353.34-24.61 353.39-23.62 353.44-22.63 353.44-22.17L353.44-22.17 353.53-22.17Q354.71-24.61 356.63-25.74 358.56-26.88 361.71-26.88L361.71-26.88Q366.6-26.88 369.01-23.61 371.43-20.34 371.43-13.33ZM366.82-13.23L366.82-13.23Q366.82-18.75 365.33-21.12 363.84-23.49 360.59-23.49L360.59-23.49Q356.98-23.49 355.23-20.98 353.49-18.48 353.49-12.89L353.49-12.89Q353.49-7.69 355.15-5.22 356.81-2.76 360.54-2.76L360.54-2.76Q363.81-2.76 365.31-5.16 366.82-7.57 366.82-13.23ZM399.36-12.28L380.51-12.28Q380.51-7.74 382.39-5.27 384.27-2.81 387.88-2.81L387.88-2.81Q390.74-2.81 392.46-3.96 394.18-5.1 394.79-6.86L394.79-6.86 398.65-5.76Q396.28 0.49 387.88 0.49L387.88 0.49Q382.02 0.49 378.96-3 375.9-6.49 375.9-13.38L375.9-13.38Q375.9-19.92 378.96-23.41 382.02-26.9 387.71-26.9L387.71-26.9Q393.55-26.9 396.45-23.39 399.36-19.87 399.36-12.87L399.36-12.87 399.36-12.28ZM380.56-15.65L394.82-15.65Q394.45-19.82 392.69-21.74 390.93-23.66 387.64-23.66L387.64-23.66Q384.44-23.66 382.57-21.52 380.71-19.38 380.56-15.65L380.56-15.65ZM409.68-13.77L409.68-13.77 409.68 0 405.29 0 405.29-20.26Q405.29-21.66 405.25-23.19 405.22-24.73 405.14-26.42L405.14-26.42 409.29-26.42Q409.34-25.29 409.38-24.39 409.41-23.49 409.44-22.81 409.46-22.14 409.48-21.69 409.49-21.24 409.49-21.02L409.49-21.02 409.59-21.02Q410.32-23.41 411.2-24.73L411.2-24.73Q412.05-25.95 413.15-26.43 414.25-26.9 415.86-26.9L415.86-26.9Q416.76-26.9 417.64-26.66L417.64-26.66 417.64-22.63Q416.81-22.88 415.3-22.88L415.3-22.88Q412.56-22.88 411.12-20.52 409.68-18.16 409.68-13.77Z" opacity="1" transform="matrix(1,0,0,1,0,0)" fill="black" class="slogan-text-1" id="SvgjsPath3103"></path></svg></g></svg></g></svg></g></svg></g></svg></g></svg></g></svg></g><g><path d="M245.816 0c68.262 0 123.6 55.338 123.6 123.6 0 68.262-55.338 123.6-123.6 123.6-51.927 0-96.374-32.021-114.674-77.394l2.153 0c18.189 44.246 61.717 75.401 112.521 75.4 67.161 0 121.606-54.445 121.606-121.606 0-67.161-54.445-121.606-121.606-121.606-50.804 0-94.332 31.154-112.521 75.4l-2.153 0c18.3-45.373 62.747-77.394 114.674-77.394z" fill="black" stroke="transparent"></path></g></svg></g><defs><mask></mask></defs><mask><g id="SvgjsG3102"><svg viewBox="0 0 395.52 247.2" height="247.2" width="395.52"><g><svg></svg></g><g><svg viewBox="0 0 395.52 247.2" height="247.2" width="395.52"><g transform="matrix(1,0,0,1,75.54432,82.61311570657826)"><svg viewBox="0 0 244.43135999999998 81.97376858684348" height="81.97376858684348" width="244.43135999999998"><g><svg viewBox="0 0 244.43135999999998 81.97376858684348" height="81.97376858684348" width="244.43135999999998"><g><svg viewBox="0 0 244.43135999999998 81.97376858684348" height="81.97376858684348" width="244.43135999999998"><g><svg viewBox="0 0 244.43135999999998 81.97376858684348" height="81.97376858684348" width="244.43135999999998"><g id="SvgjsG3101"><svg viewBox="0 0 244.43135999999998 81.97376858684348" height="81.97376858684348" width="244.43135999999998" id="SvgjsSvg3100"><g><svg viewBox="0 0 244.43135999999998 44.21273377512221" height="44.21273377512221" width="244.43135999999998"><g transform="matrix(1,0,0,1,0,0)"><svg width="244.43135999999998" viewBox="1.75 -32.7 184.08 33.300000000000004" height="44.21273377512221" data-palette-color="url(#d6be4c5f-7475-4f3c-b60f-47f3ec8189e1)"><g class="wordmark-text-0" data-fill-palette-color="primary" id="SvgjsG3099"><path d="M4.1-30.6L1.75-30.6 1.75-31.5 17.3-31.5Q21.25-31.5 22.85-31.95L22.85-31.95Q22.4-29.9 22.4-26.25L22.4-26.25 22.4-23.9 21.25-23.9 20.5-29Q20.4-30.1 19.1-30.1L19.1-30.1 8.9-30.1 8.9-16.45 18.75-16.45Q19.25-16.45 19.35-17.15L19.35-17.15 19.6-20.25 20.5-20.25 20.5-11.25 19.6-11.25 19.35-14.35Q19.25-15.05 18.75-15.05L18.75-15.05 8.9-15.05 8.9-1.6Q8.9-0.9 9.6-0.9L9.6-0.9 13.95-0.9 13.95 0 1.75 0 1.75-0.9 4.1-0.9Q4.8-0.9 4.8-1.6L4.8-1.6 4.8-30Q4.8-30.6 4.1-30.6L4.1-30.6ZM27.9-1.6L27.9-1.6 27.9-30.8Q27.9-31.5 27.2-31.5L27.2-31.5 24.85-31.5 24.85-32.4 27.3-32.4Q30.3-32.4 31.5-32.7L31.5-32.7 31.5-1.6Q31.5-0.9 32.2-0.9L32.2-0.9 34.55-0.9 34.55 0 24.85 0 24.85-0.9 27.2-0.9Q27.9-0.9 27.9-1.6ZM40.84-2.45Q38.05-5.5 38.05-10.8 38.05-16.1 40.84-19.15 43.65-22.2 48.15-22.2 52.65-22.2 55.47-19.15 58.3-16.1 58.3-10.8 58.3-5.5 55.47-2.45 52.65 0.6 48.15 0.6 43.65 0.6 40.84-2.45ZM43.65-18.32Q41.84-15.55 41.84-10.8 41.84-6.05 43.65-3.28 45.45-0.5 48.15-0.5 50.84-0.5 52.67-3.28 54.5-6.05 54.5-10.8 54.5-15.55 52.67-18.32 50.84-21.1 48.15-21.1 45.45-21.1 43.65-18.32ZM75.04-22.2Q76.99-22.2 78.22-20.55 79.44-18.9 79.44-16.4 79.44-13.9 77.39-13.9L77.39-13.9Q76.19-13.9 75.44-14.65L75.44-14.65Q76.09-16.1 76.09-17.6L76.09-17.6Q76.09-20.25 73.89-20.25L73.89-20.25Q72.04-20.25 70.62-17.18 69.19-14.1 69.19-8.25L69.19-8.25 69.19-1.6Q69.19-0.9 69.89-0.9L69.89-0.9 73.24-0.9 73.24 0 62.54 0 62.54-0.9 64.89-0.9Q65.59-0.9 65.59-1.6L65.59-1.6 65.59-20Q65.59-20.7 64.89-20.7L64.89-20.7 62.54-20.7 62.54-21.6 64.99-21.6Q67.99-21.6 69.19-21.9L69.19-21.9 69.19-15.5Q69.99-18.95 71.54-20.58 73.09-22.2 75.04-22.2ZM91.79-22.2L91.79-22.2Q95.24-22.2 97.24-19.9 99.24-17.6 99.24-13.15L99.24-13.15Q99.24-12.25 99.14-11.15L99.14-11.15 85.49-11.15 85.49-10.8Q85.49-6.05 87.22-3.33 88.94-0.6 91.67-0.6 94.39-0.6 96.14-2 97.89-3.4 98.54-6L98.54-6 99.49-5.8Q98.89-2.75 96.74-1.07 94.59 0.6 91.79 0.6L91.79 0.6Q87.44 0.6 84.57-2.45 81.69-5.5 81.69-10.78 81.69-16.05 84.59-19.13 87.49-22.2 91.79-22.2ZM95.79-14.85L95.79-14.85Q95.79-21 91.19-21L91.19-21Q88.89-21 87.27-18.5 85.64-16 85.54-12.15L85.54-12.15 95.59-12.15Q95.79-13.85 95.79-14.85ZM124.34-14.6L124.34-14.6 124.34-1.5Q124.34-0.9 125.04-0.9L125.04-0.9 127.39-0.9 127.39 0 118.39 0 118.39-0.9 120.04-0.9Q120.74-0.9 120.74-1.5L120.74-1.5 120.74-15.25Q120.74-17.8 119.61-19.03 118.49-20.25 116.64-20.25L116.64-20.25Q114.04-20.25 112.34-17.18 110.64-14.1 110.64-8.35L110.64-8.35 110.64-1.6Q110.64-0.9 111.34-0.9L111.34-0.9 112.99-0.9 112.99 0 103.99 0 103.99-0.9 106.34-0.9Q107.04-0.9 107.04-1.5L107.04-1.5 107.04-20Q107.04-20.7 106.34-20.7L106.34-20.7 103.99-20.7 103.99-21.6 106.44-21.6Q109.44-21.6 110.64-21.9L110.64-21.9 110.64-15.1Q112.34-22.2 118.14-22.2L118.14-22.2Q120.74-22.2 122.54-20.33 124.34-18.45 124.34-14.6ZM141.34-21L141.34-21Q138.49-21 136.71-18.28 134.94-15.55 134.94-10.8 134.94-6.05 136.66-3.33 138.39-0.6 141.11-0.6 143.84-0.6 145.59-2 147.34-3.4 147.99-6L147.99-6 148.94-5.8Q148.34-2.75 146.19-1.07 144.04 0.6 141.24 0.6L141.24 0.6Q136.89 0.6 134.01-2.45 131.14-5.5 131.14-10.8 131.14-16.1 134.04-19.15 136.94-22.2 141.34-22.2L141.34-22.2Q144.74-22.2 146.44-20.68 148.14-19.15 148.14-16.6L148.14-16.6Q148.14-13.3 146.29-13.3L146.29-13.3Q144.79-13.3 143.89-14.1L143.89-14.1Q144.59-15.6 144.59-17.23 144.59-18.85 143.76-19.93 142.94-21 141.34-21ZM155.48-1.6L155.48-1.6 155.48-20Q155.48-20.7 154.78-20.7L154.78-20.7 152.43-20.7 152.43-21.6 154.88-21.6Q157.88-21.6 159.08-21.9L159.08-21.9 159.08-1.5Q159.08-0.9 159.78-0.9L159.78-0.9 162.13-0.9 162.13 0 152.43 0 152.43-0.9 154.78-0.9Q155.48-0.9 155.48-1.6ZM155.61-27.13Q154.93-27.8 154.93-28.8 154.93-29.8 155.61-30.48 156.28-31.15 157.28-31.15 158.28-31.15 158.96-30.48 159.63-29.8 159.63-28.8 159.63-27.8 158.96-27.13 158.28-26.45 157.28-26.45 156.28-26.45 155.61-27.13ZM177.93-11.2L177.93-11.65 177.98-13.4 177.98-15.15Q177.98-21 174.18-21L174.18-21Q172.53-21 171.61-19.88 170.68-18.75 170.68-17.25 170.68-15.75 171.08-14.65L171.08-14.65Q170.23-13.9 168.73-13.9 167.23-13.9 167.23-16.35 167.23-18.8 169.16-20.5 171.08-22.2 174.63-22.2L174.63-22.2Q181.58-22.2 181.58-14L181.58-14 181.58-3.75Q181.58-1.05 183.08-1.05L183.08-1.05Q183.78-1.05 184.31-1.7 184.83-2.35 184.83-3.2 184.83-4.05 184.68-4.8L184.68-4.8 185.63-4.95Q185.83-4.2 185.83-3.3L185.83-3.3Q185.83-1.5 184.76-0.45 183.68 0.6 181.93 0.6 180.18 0.6 179.08-0.83 177.98-2.25 177.98-5.1L177.98-5.1 177.98-6Q177.13-2.6 175.28-1 173.43 0.6 171.01 0.6 168.58 0.6 167.11-0.93 165.63-2.45 165.63-4.98 165.63-7.5 167.98-9.47 170.33-11.45 174.73-11.45L174.73-11.45Q175.68-11.45 177.93-11.2L177.93-11.2ZM172.13-1.3L172.13-1.3Q174.23-1.3 175.91-3.68 177.58-6.05 177.88-10.35L177.88-10.35Q177.38-10.4 176.48-10.4L176.48-10.4Q172.48-10.4 170.76-8.72 169.03-7.05 169.03-4.85L169.03-4.85Q169.03-3.4 169.88-2.35 170.73-1.3 172.13-1.3Z" fill="black"></path></g></svg></g></svg></g><g transform="matrix(1,0,0,1,0,54.650299113817965)"><svg viewBox="0 0 244.43135999999998 27.323469473025522" height="27.323469473025522" width="244.43135999999998"><g transform="matrix(1,0,0,1,0,0)"><svg width="244.43135999999998" viewBox="0.71 -36.23 416.93 46.61" height="27.323469473025522" data-palette-color="url(#a785efd3-8703-4ac0-a3b2-538a3243f04f)"><path d="M13.96-23.22L8.81-23.22 8.81 0 4.42 0 4.42-23.22 0.71-23.22 0.71-26.42 4.42-26.42 4.42-29.39Q4.42-33.01 6.01-34.59 7.59-36.18 10.86-36.18L10.86-36.18Q12.7-36.18 13.96-35.89L13.96-35.89 13.96-32.54Q12.79-32.74 12.01-32.74L12.01-32.74Q10.33-32.74 9.57-31.88 8.81-31.03 8.81-28.78L8.81-28.78 8.81-26.42 13.96-26.42 13.96-23.22ZM34.28-4.52L34.2-4.52Q32.69-1.78 30.7-0.65 28.71 0.49 25.75 0.49L25.75 0.49Q21.41 0.49 19.4-1.67 17.38-3.83 17.38-8.81L17.38-8.81 17.38-26.42 21.8-26.42 21.8-9.67Q21.8-5.71 23.03-4.31 24.27-2.91 27.24-2.91L27.24-2.91Q30.42-2.91 32.25-5.08 34.08-7.25 34.08-11.11L34.08-11.11 34.08-26.42 38.47-26.42 38.47-5.64Q38.47-3.34 38.51-1.93 38.55-0.51 38.62 0L38.62 0 34.47 0Q34.45-0.12 34.39-1.15 34.32-2.17 34.28-4.52L34.28-4.52ZM45.55-36.23L49.95-36.23 49.95 0 45.55 0 45.55-36.23ZM56.9-36.23L61.3-36.23 61.3 0 56.9 0 56.9-36.23ZM88.08-7.3L88.08-7.3Q88.08-3.56 85.26-1.54 82.44 0.49 77.36 0.49L77.36 0.49Q72.43 0.49 69.76-1.14 67.08-2.76 66.28-6.2L66.28-6.2 70.16-6.96Q70.72-4.83 72.48-3.85 74.24-2.86 77.36-2.86L77.36-2.86Q80.71-2.86 82.26-3.88 83.81-4.91 83.81-6.96L83.81-6.96Q83.81-8.52 82.73-9.5 81.66-10.47 79.26-11.11L79.26-11.11Q76.43-11.87 74.76-12.35 73.09-12.84 72.18-13.2 71.28-13.55 70.74-13.87L70.74-13.87Q69.13-14.79 68.23-16.14 67.33-17.48 67.33-19.43L67.33-19.43Q67.33-23.05 69.9-24.94 72.48-26.83 77.41-26.83L77.41-26.83Q81.78-26.83 84.36-25.29 86.93-23.75 87.61-20.36L87.61-20.36 83.66-19.87Q83.29-21.63 81.69-22.57 80.09-23.51 77.41-23.51L77.41-23.51Q74.43-23.51 73.01-22.61 71.6-21.7 71.6-19.87L71.6-19.87Q71.6-18.53 72.4-17.66 73.21-16.8 75.48-16.24L75.48-16.24Q78.53-15.5 81.29-14.64 84.05-13.77 85.25-12.92L85.25-12.92Q86.64-11.91 87.36-10.56 88.08-9.2 88.08-7.3ZM103.65-3.44L103.65-0.2Q101.5 0.39 99.21 0.39L99.21 0.39Q96.57 0.39 95.25-1.11 93.94-2.61 93.94-5.59L93.94-5.59 93.94-23.22 90.88-23.22 90.88-26.42 94.11-26.42 95.4-32.32 98.33-32.32 98.33-26.42 103.21-26.42 103.21-23.22 98.33-23.22 98.33-6.54Q98.33-4.64 98.95-3.87 99.58-3.1 101.11-3.1L101.11-3.1Q101.94-3.1 103.65-3.44L103.65-3.44ZM114.37 0.49L114.37 0.49Q110.39 0.49 108.39-1.61 106.39-3.71 106.39-7.37L106.39-7.37Q106.39-11.47 109.08-13.67 111.78-15.87 117.79-16.02L117.79-16.02 123.72-16.11 123.72-17.55Q123.72-20.78 122.35-22.17 120.98-23.56 118.06-23.56L118.06-23.56Q115.1-23.56 113.76-22.56 112.42-21.56 112.15-19.36L112.15-19.36 107.56-19.78Q108.68-26.9 118.15-26.9L118.15-26.9Q123.13-26.9 125.65-24.62 128.16-22.34 128.16-18.02L128.16-18.02 128.16-6.64Q128.16-4.69 128.68-3.7 129.19-2.71 130.63-2.71L130.63-2.71Q131.31-2.71 132.07-2.88L132.07-2.88 132.07-0.15Q131.24 0.05 130.38 0.15 129.53 0.24 128.68 0.24L128.68 0.24Q126.23 0.24 125.12-1.04 124.01-2.32 123.87-5.05L123.87-5.05 123.72-5.05Q122.03-2.03 119.8-0.77 117.57 0.49 114.37 0.49ZM123.72-10.86L123.72-13.04 118.91-12.94Q115.83-12.92 114.22-12.3L114.22-12.3Q112.61-11.72 111.76-10.5 110.9-9.28 110.9-7.3L110.9-7.3Q110.9-5.15 112.06-3.98 113.22-2.81 115.37-2.81L115.37-2.81Q117.81-2.81 119.67-3.91L119.67-3.91Q121.55-5 122.63-6.92 123.72-8.84 123.72-10.86L123.72-10.86ZM145.81 0.49L145.81 0.49Q140.27 0.49 137.35-3.02 134.44-6.52 134.44-13.23L134.44-13.23Q134.44-19.9 137.36-23.4 140.29-26.9 145.76-26.9L145.76-26.9Q149.82-26.9 152.49-24.8 155.16-22.71 155.85-19.02L155.85-19.02 151.33-18.68Q150.99-20.87 149.6-22.17 148.2-23.46 145.64-23.46L145.64-23.46Q142.15-23.46 140.59-21.14 139.02-18.82 139.02-13.33L139.02-13.33Q139.02-8.06 140.69-5.52 142.35-2.98 145.69-2.98L145.69-2.98Q148.03-2.98 149.61-4.25 151.18-5.52 151.55-8.15L151.55-8.15 155.99-7.86Q155.65-5.32 154.3-3.44 152.94-1.56 150.78-0.54 148.62 0.49 145.81 0.49ZM168.54-12.06L165.32-9.4 165.32 0 160.92 0 160.92-36.23 165.32-36.23 165.32-13.6 176.91-26.42 182.06-26.42 171.35-15.06 182.63 0 177.48 0 168.54-12.06ZM221.51 0L217.32 0Q217.27-0.27 217.21-1.01 217.14-1.76 217.11-2.66 217.07-3.56 217.07-4.25L217.07-4.25 216.97-4.25Q215.75-1.71 213.74-0.61 211.72 0.49 208.75 0.49L208.75 0.49Q203.74 0.49 201.38-2.88 199.03-6.25 199.03-13.09L199.03-13.09Q199.03-20 201.46-23.45 203.89-26.9 208.75-26.9L208.75-26.9Q211.75-26.9 213.75-25.81 215.75-24.71 216.97-22.31L216.97-22.31 217.02-22.31 216.97-25.27 216.97-36.23 221.37-36.23 221.37-5.44Q221.37-3.37 221.4-2.01 221.44-0.66 221.51 0L221.51 0ZM203.64-13.23L203.64-13.23Q203.64-7.69 205.11-5.3 206.57-2.91 209.87-2.91L209.87-2.91Q213.6-2.91 215.29-5.49 216.97-8.08 216.97-13.53L216.97-13.53Q216.97-18.77 215.29-21.22 213.6-23.66 209.92-23.66L209.92-23.66Q206.6-23.66 205.12-21.2 203.64-18.75 203.64-13.23ZM250.57-12.28L231.72-12.28Q231.72-7.74 233.6-5.27 235.48-2.81 239.09-2.81L239.09-2.81Q241.95-2.81 243.67-3.96 245.39-5.1 246-6.86L246-6.86 249.86-5.76Q247.49 0.49 239.09 0.49L239.09 0.49Q233.23 0.49 230.17-3 227.1-6.49 227.1-13.38L227.1-13.38Q227.1-19.92 230.17-23.41 233.23-26.9 238.92-26.9L238.92-26.9Q244.75-26.9 247.66-23.39 250.57-19.87 250.57-12.87L250.57-12.87 250.57-12.28ZM231.77-15.65L246.02-15.65Q245.66-19.82 243.9-21.74 242.14-23.66 238.85-23.66L238.85-23.66Q235.65-23.66 233.78-21.52 231.91-19.38 231.77-15.65L231.77-15.65ZM273.2-26.42L277.86-26.42 267.99 0 262.79 0 253.2-26.42 257.89-26.42 263.7-9.23Q263.87-8.74 264.28-7.29 264.7-5.83 265.38-3.44L265.38-3.44Q265.7-4.39 266.01-5.43 266.31-6.47 266.62-7.45 266.92-8.42 267.19-9.18L267.19-9.18 273.2-26.42ZM303.86-12.28L285.01-12.28Q285.01-7.74 286.89-5.27 288.77-2.81 292.38-2.81L292.38-2.81Q295.24-2.81 296.96-3.96 298.68-5.1 299.29-6.86L299.29-6.86 303.15-5.76Q300.78 0.49 292.38 0.49L292.38 0.49Q286.52 0.49 283.46-3 280.4-6.49 280.4-13.38L280.4-13.38Q280.4-19.92 283.46-23.41 286.52-26.9 292.21-26.9L292.21-26.9Q298.05-26.9 300.95-23.39 303.86-19.87 303.86-12.87L303.86-12.87 303.86-12.28ZM285.06-15.65L299.32-15.65Q298.95-19.82 297.19-21.74 295.43-23.66 292.14-23.66L292.14-23.66Q288.94-23.66 287.07-21.52 285.2-19.38 285.06-15.65L285.06-15.65ZM309.69-36.23L314.08-36.23 314.08 0 309.69 0 309.69-36.23ZM343.38-13.23L343.38-13.23Q343.38-6.3 340.33-2.91 337.28 0.49 331.47 0.49L331.47 0.49Q325.68 0.49 322.73-3.04 319.77-6.57 319.77-13.23L319.77-13.23Q319.77-20.07 322.74-23.49 325.7-26.9 331.61-26.9L331.61-26.9Q337.67-26.9 340.52-23.57 343.38-20.24 343.38-13.23ZM338.77-13.23L338.77-13.23Q338.77-18.7 337.14-21.18 335.52-23.66 331.69-23.66L331.69-23.66Q327.83-23.66 326.11-21.13 324.39-18.6 324.39-13.23L324.39-13.23Q324.39-8.01 326.08-5.38 327.78-2.76 331.42-2.76L331.42-2.76Q335.37-2.76 337.07-5.3 338.77-7.84 338.77-13.23ZM371.43-13.33L371.43-13.33Q371.43-6.42 369-2.97 366.57 0.49 361.71 0.49L361.71 0.49Q355.61 0.49 353.51-4.1L353.51-4.1 353.39-4.1Q353.49-3.93 353.49 0.05L353.49 0.05 353.49 10.38 349.09 10.38 349.09-21.02Q349.09-23.05 349.05-24.4 349.02-25.76 348.94-26.42L348.94-26.42 353.19-26.42Q353.22-26.32 353.28-25.46 353.34-24.61 353.39-23.62 353.44-22.63 353.44-22.17L353.44-22.17 353.53-22.17Q354.71-24.61 356.63-25.74 358.56-26.88 361.71-26.88L361.71-26.88Q366.6-26.88 369.01-23.61 371.43-20.34 371.43-13.33ZM366.82-13.23L366.82-13.23Q366.82-18.75 365.33-21.12 363.84-23.49 360.59-23.49L360.59-23.49Q356.98-23.49 355.23-20.98 353.49-18.48 353.49-12.89L353.49-12.89Q353.49-7.69 355.15-5.22 356.81-2.76 360.54-2.76L360.54-2.76Q363.81-2.76 365.31-5.16 366.82-7.57 366.82-13.23ZM399.36-12.28L380.51-12.28Q380.51-7.74 382.39-5.27 384.27-2.81 387.88-2.81L387.88-2.81Q390.74-2.81 392.46-3.96 394.18-5.1 394.79-6.86L394.79-6.86 398.65-5.76Q396.28 0.49 387.88 0.49L387.88 0.49Q382.02 0.49 378.96-3 375.9-6.49 375.9-13.38L375.9-13.38Q375.9-19.92 378.96-23.41 382.02-26.9 387.71-26.9L387.71-26.9Q393.55-26.9 396.45-23.39 399.36-19.87 399.36-12.87L399.36-12.87 399.36-12.28ZM380.56-15.65L394.82-15.65Q394.45-19.82 392.69-21.74 390.93-23.66 387.64-23.66L387.64-23.66Q384.44-23.66 382.57-21.52 380.71-19.38 380.56-15.65L380.56-15.65ZM409.68-13.77L409.68-13.77 409.68 0 405.29 0 405.29-20.26Q405.29-21.66 405.25-23.19 405.22-24.73 405.14-26.42L405.14-26.42 409.29-26.42Q409.34-25.29 409.38-24.39 409.41-23.49 409.44-22.81 409.46-22.14 409.48-21.69 409.49-21.24 409.49-21.02L409.49-21.02 409.59-21.02Q410.32-23.41 411.2-24.73L411.2-24.73Q412.05-25.95 413.15-26.43 414.25-26.9 415.86-26.9L415.86-26.9Q416.76-26.9 417.64-26.66L417.64-26.66 417.64-22.63Q416.81-22.88 415.3-22.88L415.3-22.88Q412.56-22.88 411.12-20.52 409.68-18.16 409.68-13.77Z" opacity="1" transform="matrix(1,0,0,1,0,0)" fill="black" class="slogan-text-1" id="SvgjsPath3098"></path></svg></g></svg></g></svg></g></svg></g></svg></g></svg></g></svg></g><g><path d="M245.816 0c68.262 0 123.6 55.338 123.6 123.6 0 68.262-55.338 123.6-123.6 123.6-51.927 0-96.374-32.021-114.674-77.394l2.153 0c18.189 44.246 61.717 75.401 112.521 75.4 67.161 0 121.606-54.445 121.606-121.606 0-67.161-54.445-121.606-121.606-121.606-50.804 0-94.332 31.154-112.521 75.4l-2.153 0c18.3-45.373 62.747-77.394 114.674-77.394z" fill="black" stroke="transparent"></path></g></svg></g><defs><mask></mask></defs></svg><rect width="395.52" height="247.2" fill="black" stroke="none" visibility="hidden"></rect></g></mask></svg><rect width="395.52" height="247.2" fill="black" stroke="none" visibility="hidden"></rect></g></mask></svg><rect width="395.52" height="247.2" fill="black" stroke="none" visibility="hidden"></rect></g></mask><linearGradient x1="0" x2="1" y1="0.578" y2="0.595" id="2e9752ec-2f49-4c41-9402-0be46de2abb9"><stop stop-color="#6ee2f5" offset="0"></stop><stop stop-color="#6454f0" offset="1"></stop></linearGradient></svg><rect width="395.52" height="247.2" fill="none" stroke="none" visibility="hidden"></rect></g></svg></g></svg>